0
SECTION
2
HEADER
9
$INSUNITS
70
1
9
$ACADVER
1
AC1014
9
$HANDSEED
5
FFFF
0
ENDSEC
0
SECTION
2
TABLES
0
TABLE
2
VPORT
5
8
100
AcDbSymbolTable
0
ENDTAB
0
TABLE
2
LTYPE
5
5
100
AcDbSymbolTable
0
LTYPE
5
14
100
AcDbSymbolTableRecord
100
AcDbLinetypeTableRecord
2
BYBLOCK
70
0
0
LTYPE
5
15
100
AcDbSymbolTableRecord
100
AcDbLinetypeTableRecord
2
BYLAYER
70
0
0
LTYPE
5
16
100
AcDbSymbolTableRecord
100
AcDbLinetypeTableRecord
2
DASHED
70
0
3
Dashed __ __ __ __ __ __ __ __ __ __ __ __ __ _
72
65
73
2
40
0.75
49
0.5
74
0
49
-0.25
74
0
0
ENDTAB
0
TABLE
2
LAYER
5
2
100
AcDbSymbolTable
70
3
0
LAYER
5
50
100
AcDbSymbolTableRecord
100
AcDbLayerTableRecord
2
1
70
0
62
7
6
DASHED
0
LAYER
5
51
100
AcDbSymbolTableRecord
100
AcDbLayerTableRecord
2
0
70
0
62
7
6
CONTINUOUS
0
ENDTAB
0
TABLE
2
STYLE
5
3
100
AcDbSymbolTable
70
1
0
STYLE
5
11
100
AcDbSymbolTableRecord
100
AcDbTextStyleTableRecord
2
STANDARD
70
0
0
ENDTAB
0
TABLE
2
VIEW
5
6
100
AcDbSymbolTable
70
0
0
ENDTAB
0
TABLE
2
UCS
5
7
100
AcDbSymbolTable
70
0
0
ENDTAB
0
TABLE
2
APPID
5
9
100
AcDbSymbolTable
70
2
0
APPID
5
12
100
AcDbSymbolTableRecord
100
AcDbRegAppTableRecord
2
ACAD
70
0
0
ENDTAB
0
TABLE
2
DIMSTYLE
5
A
100
AcDbSymbolTable
70
1
0
ENDTAB
0
TABLE
2
BLOCK_RECORD
5
1
100
AcDbSymbolTable
70
1
0
BLOCK_RECORD
5
1F
100
AcDbSymbolTableRecord
100
AcDbBlockTableRecord
2
*MODEL_SPACE
0
BLOCK_RECORD
5
1B
100
AcDbSymbolTableRecord
100
AcDbBlockTableRecord
2
*PAPER_SPACE
0
ENDTAB
0
ENDSEC
0
SECTION
2
BLOCKS
0
BLOCK
5
20
100
AcDbEntity
100
AcDbBlockBegin
2
*MODEL_SPACE
0
ENDBLK
5
21
100
AcDbEntity
100
AcDbBlockEnd
0
BLOCK
5
1C
100
AcDbEntity
100
AcDbBlockBegin
2
*PAPER_SPACE
0
ENDBLK
5
1D
100
AcDbEntity
100
AcDbBlockEnd
0
ENDSEC
0
SECTION
2
ENTITIES
0
LINE
5
100
100
AcDbEntity
8
0
100
AcDbLine
10
35.901617727069237
20
0.006580746042096291
30
0
11
34.909897765696776
21
0.0065804507368874832
31
0
0
LWPOLYLINE
5
101
100
AcDbEntity
8
0
100
AcDbPolyline
90
12
70
1
43
0.0
10
22.367906963422822
20
-11.655110118420769
10
22.367906963422822
20
-12.119597400490946
10
22.117906963422818
20
-12.119597400490946
10
22.117906963422818
20
-12.619597400490951
10
22.367906963422822
20
-12.619597400490951
10
22.367906963422822
20
-13.083883422753853
10
25.367906963422815
20
-13.083883422753853
10
25.367906963422815
20
-12.619597400490951
10
25.617906963422818
20
-12.619597400490951
10
25.617906963422818
20
-12.119597400490946
10
25.367906963422815
20
-12.119597400490946
10
25.367906963422815
20
-11.655110118420769
0
LWPOLYLINE
5
102
100
AcDbEntity
8
0
100
AcDbPolyline
90
26
70
1
43
0.0
10
28.918596608028299
20
-2.5477486826786424
10
31.918596608028302
20
-2.5477486826786424
10
31.918596608028302
20
-2.3917486826786454
10
31.918596608028302
20
-2.0833193554297389
10
31.918596608028302
20
-1.9078225481613433
10
32.171000658644715
20
-1.9078225481613433
10
32.171000658644715
20
-1.4078225481613449
10
31.918596608028302
20
-1.4078225481613449
10
31.918596608028302
20
-0.90782259108989927
10
31.921147165562118
20
-0.90782259108989927
10
32.171147122633556
20
-0.90796909800730163
10
32.171440136468355
20
-0.40796918386441439
10
31.92144017939691
20
-0.40782267694701757
10
31.918596608028302
20
-0.40782267694701202
10
31.92144017939691
20
-0.40782267694701757
10
31.918596608028302
20
0.12512470134363049
10
28.915753036659691
20
0.1091028568768415
10
28.915753036659691
20
-0.40782267694701757
10
28.665753079588246
20
-0.40796918386441439
10
28.666046093423045
20
-0.90796909800730163
10
28.916046050494483
20
-0.90782259108989927
10
28.918596608028299
20
-1.4078225481613449
10
28.666192557411886
20
-1.4078225481613449
10
28.666192557411886
20
-1.9078225481613433
10
28.918596608028299
20
-1.9078225481613433
10
28.918596608028299
20
-2.3917486826786454
0
LINE
5
103
100
AcDbEntity
8
0
100
AcDbLine
10
35.825493200743189
20
-11.177483516150099
30
0
11
36.075493200743182
21
-11.177483516150099
31
0
0
LINE
5
104
100
AcDbEntity
8
0
100
AcDbLine
10
34.909897765696776
20
0.0065804507368874832
30
0
11
34.909897765697067
21
0.25658012885566472
31
0
0
LINE
5
105
100
AcDbEntity
8
0
100
AcDbLine
10
30.54776404193467
20
-9.8679479911251917
30
0
11
30.54776404204058
21
-9.6177579433842606
31
0
0
LINE
5
106
100
AcDbEntity
8
0
100
AcDbLine
10
26.088496037232041
20
-9.8837362076602986
30
0
11
26.088496037232041
21
-12.8837362076603
31
0
0
LINE
5
107
100
AcDbEntity
8
0
100
AcDbLine
10
24.243326779902414
20
-5.6303106766928446
30
0
11
24.243326779902414
21
-5.880310676692841
31
0
0
LINE
5
108
100
AcDbEntity
8
0
100
AcDbLine
10
36.075493200743182
20
-11.677483516150104
30
0
11
35.825493200743189
21
-11.677483516150104
31
0
0
LINE
5
109
100
AcDbEntity
8
0
100
AcDbLine
10
33.909897765696392
20
0.25658012885566472
30
0
11
33.909897765696371
21
0.006580746042096291
31
0
0
LWPOLYLINE
5
110
100
AcDbEntity
8
0
100
AcDbPolyline
90
24
70
1
43
0.0
10
32.487732250655121
20
-4.6537493326939403
10
32.487439236820315
20
-4.1537494185510528
10
32.73743919389176
20
-4.1536029116336559
10
32.73743919389176
20
-3.6366773778097974
10
35.740282765260375
20
-3.6206555333430082
10
35.743126336628976
20
-4.1536029116336559
10
35.993126293700421
20
-4.1537494185510528
10
35.992833279865629
20
-4.6537493326939403
10
35.742833322794183
20
-4.6536028257765381
10
35.740282765260375
20
-4.6536028257765381
10
35.740282765260375
20
-5.153602782847984
10
35.99268681587678
20
-5.153602782847984
10
35.99268681587678
20
-5.6536027828479822
10
35.740282765260375
20
-5.6536027828479822
10
35.740282765260375
20
-5.8290995901163773
10
35.740282765260375
20
-6.1375289173652785
10
35.740282765260375
20
-6.2935289173652809
10
32.740282765260375
20
-6.2935289173652809
10
32.740282765260375
20
-6.1375289173652785
10
32.740282765260375
20
-5.6536027828479822
10
32.487878714643948
20
-5.6536027828479822
10
32.487878714643948
20
-5.153602782847984
10
32.740282765260375
20
-5.153602782847984
10
32.737732207726552
20
-4.6536028257765381
0
LINE
5
111
100
AcDbEntity
8
0
100
AcDbLine
10
33.409897765696243
20
-3.2434186367714681
30
0
11
33.909897765696392
21
-3.2434186367714681
31
0
0
LINE
5
112
100
AcDbEntity
8
0
100
AcDbLine
10
24.743326779902414
20
-5.880310676692841
30
0
11
24.743326779902414
21
-5.6303106766928446
31
0
0
LINE
5
113
100
AcDbEntity
8
0
100
AcDbLine
10
35.825493200743189
20
-10.677483516150101
30
0
11
35.825493200743189
21
-9.6417691392063958
31
0
0
LINE
5
114
100
AcDbEntity
8
0
100
AcDbLine
10
28.846214059284844
20
-5.6891889869231766
30
0
11
31.84621405928484
21
-5.6891889869231713
31
0
0
LWPOLYLINE
5
115
100
AcDbEntity
8
0
100
AcDbPolyline
90
20
70
1
43
0.0
10
28.866785760460335
20
-6.0304785027241978
10
31.866785760460328
20
-6.0304785027241978
10
31.866785760460328
20
-7.0661928796679039
10
32.116785760460324
20
-7.0661928796679039
10
32.116785760460324
20
-7.566192879667903
10
31.866785760460328
20
-7.566192879667903
10
31.866785760460328
20
-8.0661928796679074
10
32.116785760460324
20
-8.0661928796679074
10
32.116785760460324
20
-8.5661928796679057
10
31.866785760460328
20
-8.5661928796679057
10
31.866785760460328
20
-9.1376214511079041
10
28.866785760460335
20
-9.1376214511079041
10
28.866785760460335
20
-8.5661928796679057
10
28.616785760460331
20
-8.5661928796679057
10
28.616785760460331
20
-8.0661928796679074
10
28.866785760460335
20
-8.0661928796679074
10
28.866785760460335
20
-7.566192879667903
10
28.616785760460331
20
-7.566192879667903
10
28.616785760460331
20
-7.0661928796679039
10
28.866785760460335
20
-7.0661928796679039
0
LINE
5
116
100
AcDbEntity
8
0
100
AcDbLine
10
36.075493200743182
20
-12.177483516150103
30
0
11
36.075493200743182
21
-11.677483516150104
31
0
0
LINE
5
117
100
AcDbEntity
8
0
100
AcDbLine
10
33.409897765696208
20
0.006580746042096291
30
0
11
33.409897765696243
21
0.25658012885566472
31
0
0
LINE
5
118
100
AcDbEntity
8
0
100
AcDbLine
10
30.547764041934681
20
-9.8679090863519185
30
0
11
29.303665121841235
21
-9.8679090863519185
31
0
0
LINE
5
119
100
AcDbEntity
8
0
100
AcDbLine
10
34.40989776569662
20
0.25658012885566472
30
0
11
34.409897765696599
21
0.006580746042096291
31
0
0
LINE
5
120
100
AcDbEntity
8
0
100
AcDbLine
10
36.075493200743182
20
-11.177483516150099
30
0
11
36.075493200743182
21
-10.677483516150101
31
0
0
LINE
5
121
100
AcDbEntity
8
0
100
AcDbLine
10
25.743326779902414
20
-5.880310676692841
30
0
11
26.243326779902411
21
-5.880310676692841
31
0
0
LINE
5
122
100
AcDbEntity
8
0
100
AcDbLine
10
28.840882799839772
20
-9.8837362076602986
30
0
11
27.832594958488766
21
-9.8837362076602986
31
0
0
LINE
5
123
100
AcDbEntity
8
0
100
AcDbLine
10
32.742023321848251
20
-9.3404447440298384
30
0
11
32.742023321848251
21
-8.6620779137574289
31
0
0
LINE
5
124
100
AcDbEntity
8
0
100
AcDbLine
10
31.04776404309796
20
-12.86790908635192
30
0
11
32.056051884448962
21
-12.86790908635192
31
0
0
LINE
5
125
100
AcDbEntity
8
0
100
AcDbLine
10
32.575493200743189
20
-10.677483516150101
30
0
11
32.825493200743189
21
-10.677483516150101
31
0
0
LINE
5
126
100
AcDbEntity
8
0
100
AcDbLine
10
34.909897765696776
20
-2.9934189586526907
30
0
11
34.909897765697067
21
-3.2434186367714681
31
0
0
LINE
5
127
100
AcDbEntity
8
0
100
AcDbLine
10
24.743326779902414
20
-5.6303106766928446
30
0
11
24.243326779902414
21
-5.6303106766928446
31
0
0
LINE
5
128
100
AcDbEntity
8
0
100
AcDbLine
10
23.743398162857893
20
-5.880248134775492
30
0
11
24.243326779902414
21
-5.880310676692841
31
0
0
LINE
5
129
100
AcDbEntity
8
0
100
AcDbLine
10
30.54776404204058
20
-13.118060229319584
30
0
11
31.047764043165152
21
-13.118060229319584
31
0
0
LWPOLYLINE
5
130
100
AcDbEntity
8
0
100
AcDbPolyline
90
12
70
1
43
0.0
10
22.37671905177157
20
-9.8799619522322164
10
25.376719051771563
20
-9.8799619522322164
10
25.376719051771563
20
-10.34424797449512
10
25.626719051771559
20
-10.34424797449512
10
25.626719051771559
20
-10.844247974495119
10
25.376719051771563
20
-10.844247974495119
10
25.376719051771563
20
-11.308735256565296
10
22.37671905177157
20
-11.308735256565296
10
22.376719051771566
20
-10.844247974495119
10
22.126719051771563
20
-10.844247974495119
10
22.126719051771566
20
-10.34424797449512
10
22.376719051771566
20
-10.34424797449512
0
LINE
5
131
100
AcDbEntity
8
0
100
AcDbLine
10
33.909897765696392
20
-3.2434186367714681
30
0
11
33.909897765696371
21
-2.9934192539578999
31
0
0
LINE
5
132
100
AcDbEntity
8
0
100
AcDbLine
10
27.832594958488766
20
-12.883736207660295
30
0
11
28.840882799839772
21
-12.883736207660295
31
0
0
LINE
5
133
100
AcDbEntity
8
0
100
AcDbLine
10
32.096418657612425
20
-4.5108221566507636
30
0
11
32.096418657612418
21
-5.0108221566507618
31
0
0
LINE
5
134
100
AcDbEntity
8
0
100
AcDbLine
10
26.743326779902411
20
-9.1301855928581421
30
0
11
26.243326779902411
21
-9.1301855928581421
31
0
0
LINE
5
135
100
AcDbEntity
8
0
100
AcDbLine
10
32.096418657612418
20
-5.0108221566507618
30
0
11
31.846208918028239
21
-5.0108221566507618
31
0
0
LINE
5
136
100
AcDbEntity
8
0
100
AcDbLine
10
32.825493200743189
20
-11.177483516150099
30
0
11
32.825493200743189
21
-11.677483516150104
31
0
0
LINE
5
137
100
AcDbEntity
8
0
100
AcDbLine
10
31.84621405928484
20
-5.6891889869231713
30
0
11
31.84621405928484
21
-5.0108221566507618
31
0
0
LINE
5
138
100
AcDbEntity
8
0
100
AcDbLine
10
32.825493200743189
20
-11.177483516150099
30
0
11
32.575493200743189
21
-11.177483516150099
31
0
0
LINE
5
139
100
AcDbEntity
8
0
100
AcDbLine
10
36.075493200743182
20
-10.677483516150101
30
0
11
35.825493200743189
21
-10.677483516150101
31
0
0
LINE
5
140
100
AcDbEntity
8
0
100
AcDbLine
10
32.825493200743189
20
-9.6417691392063958
30
0
11
32.825493200743189
21
-10.677483516150101
31
0
0
LINE
5
141
100
AcDbEntity
8
0
100
AcDbLine
10
32.492227920175843
20
-7.6620779137574377
30
0
11
32.492227920175843
21
-7.1620779137574395
31
0
0
LINE
5
142
100
AcDbEntity
8
0
100
AcDbLine
10
32.575493200743189
20
-11.677483516150104
30
0
11
32.825493200743189
21
-11.677483516150104
31
0
0
LINE
5
143
100
AcDbEntity
8
0
100
AcDbLine
10
32.742023321848258
20
-7.6620779137574377
30
0
11
32.492227920175843
21
-7.6620779137574377
31
0
0
LINE
5
144
100
AcDbEntity
8
0
100
AcDbLine
10
27.332594957325487
20
-9.8837362076602986
30
0
11
26.088496037232041
21
-9.8837362076602986
31
0
0
LINE
5
145
100
AcDbEntity
8
0
100
AcDbLine
10
26.743326779902411
20
-5.6303106766928446
30
0
11
26.243326779902411
21
-5.6303106766928446
31
0
0
LINE
5
146
100
AcDbEntity
8
0
100
AcDbLine
10
31.047764043165152
20
-13.118060229319584
30
0
11
31.047764043097938
21
-12.867833385965037
31
0
0
LINE
5
147
100
AcDbEntity
8
0
100
AcDbLine
10
35.74202332184823
20
-8.162077913757436
30
0
11
35.74202332184823
21
-7.6620779137574377
31
0
0
LINE
5
148
100
AcDbEntity
8
0
100
AcDbLine
10
23.743398162857893
20
-8.8802481347754938
30
0
11
23.743398162857893
21
-5.880248134775492
31
0
0
LINE
5
149
100
AcDbEntity
8
0
100
AcDbLine
10
24.243326779902414
20
-9.1301855928581421
30
0
11
24.243326779902414
21
-8.8801855928581404
31
0
0
LINE
5
150
100
AcDbEntity
8
0
100
AcDbLine
10
26.743326779902411
20
-8.8801855928581404
30
0
11
26.743326779902411
21
-9.1301855928581421
31
0
0
LINE
5
151
100
AcDbEntity
8
0
100
AcDbLine
10
32.742023321848258
20
-8.162077913757436
30
0
11
32.742023321848258
21
-7.6620779137574377
31
0
0
LINE
5
152
100
AcDbEntity
8
0
100
AcDbLine
10
31.84621405928484
20
-3.5108221566507667
30
0
11
31.846214059284836
21
-2.8320461297231816
31
0
0
LINE
5
153
100
AcDbEntity
8
0
100
AcDbLine
10
32.825493200743189
20
-12.177483516150103
30
0
11
32.575493200743189
21
-12.177483516150103
31
0
0
LINE
5
154
100
AcDbEntity
8
0
100
AcDbLine
10
34.909897765696776
20
-2.9934192539579052
30
0
11
35.901617727069237
21
-2.9934192539578999
31
0
0
LINE
5
155
100
AcDbEntity
8
0
100
AcDbLine
10
26.243326779902411
20
-8.8802481347754938
30
0
11
25.743326779902414
21
-8.8802481347754938
31
0
0
LINE
5
156
100
AcDbEntity
8
0
100
AcDbLine
10
35.74202332184823
20
-9.0445779137574327
30
0
11
35.74202332184823
21
-8.6620779137574342
31
0
0
LINE
5
157
100
AcDbEntity
8
0
100
AcDbLine
10
34.909897765697067
20
-3.2434186367714681
30
0
11
34.40989776569662
21
-3.2434186367714681
31
0
0
LINE
5
158
100
AcDbEntity
8
0
100
AcDbLine
10
26.743326779902411
20
-5.880310676692841
30
0
11
26.743326779902411
21
-5.6303106766928446
31
0
0
LINE
5
159
100
AcDbEntity
8
0
100
AcDbLine
10
27.332594957325476
20
-9.8837751124335682
30
0
11
27.332594957431386
21
-9.6335850646926353
31
0
0
LINE
5
160
100
AcDbEntity
8
0
100
AcDbLine
10
32.575493200743189
20
-12.177483516150103
30
0
11
32.575493200743189
21
-11.677483516150104
31
0
0
LINE
5
161
100
AcDbEntity
8
0
100
AcDbLine
10
27.743326779902414
20
-5.880310676692841
30
0
11
27.743326779902414
21
-5.6303106766928446
31
0
0
LWPOLYLINE
5
162
100
AcDbEntity
8
0
100
AcDbPolyline
90
4
70
1
43
0.0
10
24.711822343632424
20
-6.5231320676768831
10
24.247255443632422
20
-6.5231320676768831
10
24.247255443632422
20
-7.3144706676768809
10
24.711822343632424
20
-7.3144706676768809
0
LINE
5
163
100
AcDbEntity
8
0
100
AcDbLine
10
28.846214059284851
20
-5.3933221566507594
30
0
11
28.846214059284844
21
-5.0108221566507618
31
0
0
LWPOLYLINE
5
164
100
AcDbEntity
8
0
100
AcDbPolyline
90
2
70
1
43
0.0
10
35.743126336628976
20
-4.1536029116336559
10
35.740282765260375
20
-4.1536029116336506
0
LINE
5
165
100
AcDbEntity
8
0
100
AcDbLine
10
27.243326779902414
20
-9.1301855928581421
30
0
11
27.243326779902414
21
-8.8801855928581404
31
0
0
LINE
5
166
100
AcDbEntity
8
0
100
AcDbLine
10
27.243326779902414
20
-5.6303106766928446
30
0
11
27.243326779902414
21
-5.880310676692841
31
0
0
LINE
5
167
100
AcDbEntity
8
0
100
AcDbLine
10
32.491818723520673
20
-8.162077913757436
30
0
11
32.491818723520673
21
-8.6620779137574289
31
0
0
LINE
5
168
100
AcDbEntity
8
0
100
AcDbLine
10
25.743326779902414
20
-9.1301855928581421
30
0
11
25.243326779902414
21
-9.1301855928581421
31
0
0
LINE
5
169
100
AcDbEntity
8
0
100
AcDbLine
10
27.332594957431386
20
-13.133887350627958
30
0
11
27.832594958555962
21
-13.133887350627958
31
0
0
LINE
5
170
100
AcDbEntity
8
0
100
AcDbLine
10
32.491818723520673
20
-8.6620779137574289
30
0
11
32.742028463104852
21
-8.6620779137574289
31
0
0
LINE
5
171
100
AcDbEntity
8
0
100
AcDbLine
10
32.825493200743189
20
-12.177483516150103
30
0
11
32.825493200743132
21
-12.748912087590103
31
0
0
LINE
5
172
100
AcDbEntity
8
0
100
AcDbLine
10
28.846214059284851
20
-4.0108221566507654
30
0
11
28.596418657612432
21
-4.0108221566507654
31
0
0
LINE
5
173
100
AcDbEntity
8
0
100
AcDbLine
10
35.74202332184823
20
-6.4833018868298593
30
0
11
35.74202332184823
21
-6.7791687171022712
31
0
0
LINE
5
174
100
AcDbEntity
8
0
100
AcDbLine
10
28.596418657612432
20
-3.5108221566507667
30
0
11
28.846214059284844
21
-3.5108221566507667
31
0
0
LINE
5
175
100
AcDbEntity
8
0
100
AcDbLine
10
27.743326779902414
20
-5.6303106766928446
30
0
11
27.243326779902414
21
-5.6303106766928446
31
0
0
LINE
5
176
100
AcDbEntity
8
0
100
AcDbLine
10
35.742833322794183
20
-4.6536028257765381
30
0
11
35.740282765260375
21
-4.6536028257765381
31
0
0
LINE
5
177
100
AcDbEntity
8
0
100
AcDbLine
10
26.243326779902411
20
-9.1301855928581421
30
0
11
26.243326779902411
21
-8.8801855928581404
31
0
0
LINE
5
178
100
AcDbEntity
8
0
100
AcDbLine
10
24.743326779902414
20
-8.8801855928581404
30
0
11
24.743326779902414
21
-9.1301855928581421
31
0
0
LINE
5
179
100
AcDbEntity
8
0
100
AcDbLine
10
32.742023321848258
20
-7.1620779137574395
30
0
11
32.742023321848258
21
-6.4833018868298593
31
0
0
LINE
5
180
100
AcDbEntity
8
0
100
AcDbLine
10
33.909897765696371
20
-2.9934192539578999
30
0
11
34.409897765696599
21
-2.9934192539578999
31
0
0
LINE
5
181
100
AcDbEntity
8
0
100
AcDbLine
10
35.825493200743132
20
-12.748912087590108
30
0
11
35.825493200743189
21
-12.177483516150103
31
0
0
LINE
5
182
100
AcDbEntity
8
0
100
AcDbLine
10
30.54776404193467
20
-12.867870181578652
30
0
11
30.54776404204058
21
-13.118060229319584
31
0
0
LINE
5
183
100
AcDbEntity
8
0
100
AcDbLine
10
31.921147165562118
20
-0.90782259108989927
30
0
11
31.918596608028302
21
-0.90782259108989927
31
0
0
LINE
5
184
100
AcDbEntity
8
0
100
AcDbLine
10
26.243326779902411
20
-5.6303106766928446
30
0
11
26.243326779902411
21
-5.880310676692841
31
0
0
LINE
5
185
100
AcDbEntity
8
0
100
AcDbLine
10
31.846214059284836
20
-2.8320461297231816
30
0
11
28.846214059284844
21
-2.8320461297231816
31
0
0
LINE
5
186
100
AcDbEntity
8
0
100
AcDbLine
10
32.415521751108088
20
-2.9934192539578999
30
0
11
33.409897765696208
21
-2.9934192539578999
31
0
0
LINE
5
187
100
AcDbEntity
8
0
100
AcDbLine
10
35.825493200743189
20
-11.677483516150104
30
0
11
35.825493200743189
21
-11.177483516150099
31
0
0
LINE
5
188
100
AcDbEntity
8
0
100
AcDbLine
10
32.825493200743239
20
-12.748912087590103
30
0
11
35.82549320074304
21
-12.748912087590108
31
0
0
LINE
5
189
100
AcDbEntity
8
0
100
AcDbLine
10
35.825493200743189
20
-9.6417691392063958
30
0
11
32.825493200743189
21
-9.6417691392063958
31
0
0
LINE
5
190
100
AcDbEntity
8
0
100
AcDbLine
10
27.832594958555962
20
-9.6335850646926353
30
0
11
27.832594958488745
21
-9.883811908047182
31
0
0
LINE
5
191
100
AcDbEntity
8
0
100
AcDbLine
10
25.743326779902414
20
-5.6303106766928446
30
0
11
25.243326779902414
21
-5.6303106766928446
31
0
0
LINE
5
192
100
AcDbEntity
8
0
100
AcDbLine
10
35.74202332184823
20
-9.3404447440298437
30
0
11
32.742023321848251
21
-9.3404447440298384
31
0
0
LINE
5
193
100
AcDbEntity
8
0
100
AcDbLine
10
31.846214059284836
20
-4.0108221566507654
30
0
11
32.096009460957248
21
-4.0108221566507654
31
0
0
LINE
5
194
100
AcDbEntity
8
0
100
AcDbLine
10
32.742023321848258
20
-6.4833018868298593
30
0
11
35.74202332184823
21
-6.4833018868298593
31
0
0
LINE
5
195
100
AcDbEntity
8
0
100
AcDbLine
10
34.40989776569662
20
-3.2434186367714681
30
0
11
34.409897765696599
21
-2.9934192539578999
31
0
0
LINE
5
196
100
AcDbEntity
8
0
100
AcDbLine
10
27.332594957431386
20
-9.6335850646926353
30
0
11
27.832594958555962
21
-9.6335850646926353
31
0
0
LINE
5
197
100
AcDbEntity
8
0
100
AcDbLine
10
29.303665121841235
20
-12.86790908635192
30
0
11
30.547764041934681
21
-12.86790908635192
31
0
0
LINE
5
198
100
AcDbEntity
8
0
100
AcDbLine
10
25.243326779902414
20
-5.6303106766928446
30
0
11
25.243326779902414
21
-5.880310676692841
31
0
0
LINE
5
199
100
AcDbEntity
8
0
100
AcDbLine
10
25.743326779902414
20
-5.880310676692841
30
0
11
25.743326779902414
21
-5.6303106766928446
31
0
0
LINE
5
200
100
AcDbEntity
8
0
100
AcDbLine
10
33.409897765696208
20
-2.9934192539578999
30
0
11
33.409897765696243
21
-3.2434186367714681
31
0
0
LINE
5
201
100
AcDbEntity
8
0
100
AcDbLine
10
32.415521751108088
20
0.006580746042096291
30
0
11
32.415521751108088
21
-2.9934192539578999
31
0
0
LINE
5
202
100
AcDbEntity
8
0
100
AcDbLine
10
35.901617727069237
20
-2.9934192539578999
30
0
11
35.901617727069237
21
0.006580746042096291
31
0
0
LINE
5
203
100
AcDbEntity
8
0
100
AcDbLine
10
29.303665121841235
20
-9.8679090863519185
30
0
11
29.303665121841235
21
-12.86790908635192
31
0
0
LINE
5
204
100
AcDbEntity
8
0
100
AcDbLine
10
32.056051884448962
20
-12.86790908635192
30
0
11
32.056051884448962
21
-9.8679090863519185
31
0
0
LINE
5
205
100
AcDbEntity
8
0
100
AcDbLine
10
31.047764043165152
20
-9.6177579433842606
30
0
11
31.047764043097938
21
-9.8679847867388055
31
0
0
LINE
5
206
100
AcDbEntity
8
0
100
AcDbLine
10
30.54776404204058
20
-9.6177579433842606
30
0
11
31.047764043165152
21
-9.6177579433842606
31
0
0
LINE
5
207
100
AcDbEntity
8
0
100
AcDbLine
10
34.909897765697067
20
0.25658012885566472
30
0
11
34.40989776569662
21
0.25658012885566472
31
0
0
LINE
5
208
100
AcDbEntity
8
0
100
AcDbLine
10
32.056051884448962
20
-9.8679090863519185
30
0
11
31.04776404309796
21
-9.8679090863519185
31
0
0
LINE
5
209
100
AcDbEntity
8
0
100
AcDbLine
10
33.409897765696243
20
0.25658012885566472
30
0
11
33.909897765696392
21
0.25658012885566472
31
0
0
LINE
5
210
100
AcDbEntity
8
0
100
AcDbLine
10
34.409897765696599
20
0.006580746042096291
30
0
11
33.909897765696371
21
0.006580746042096291
31
0
0
LINE
5
211
100
AcDbEntity
8
0
100
AcDbLine
10
33.409897765696208
20
0.006580746042096291
30
0
11
32.415521751108088
21
0.006580746042096291
31
0
0
LINE
5
212
100
AcDbEntity
8
0
100
AcDbLine
10
35.825493200743189
20
-12.177483516150103
30
0
11
36.075493200743182
21
-12.177483516150103
31
0
0
LINE
5
213
100
AcDbEntity
8
0
100
AcDbLine
10
24.743326779902414
20
-5.880310676692841
30
0
11
25.243326779902414
21
-5.880310676692841
31
0
0
LINE
5
214
100
AcDbEntity
8
0
100
AcDbLine
10
28.840882799839772
20
-12.883736207660295
30
0
11
28.840882799839772
21
-9.8837362076602986
31
0
0
CIRCLE
5
215
100
AcDbEntity
8
0
100
AcDbCircle
10
24.461823124608216
20
-8.0187393906426045
30
0
40
0.30511809999999984
210
0
220
0
230
1
0
LINE
5
216
100
AcDbEntity
8
0
100
AcDbLine
10
28.243398336219602
20
-8.8802481347754938
30
0
11
27.743326779902414
21
-8.8802481347754938
31
0
0
LINE
5
217
100
AcDbEntity
8
0
100
AcDbLine
10
32.096009460957248
20
-4.0108221566507654
30
0
11
32.096009460957248
21
-3.5108221566507667
31
0
0
LINE
5
218
100
AcDbEntity
8
0
100
AcDbLine
10
28.846214059284851
20
-5.3933221566507594
30
0
11
28.846214059284844
21
-5.6891889869231766
31
0
0
LINE
5
219
100
AcDbEntity
8
0
100
AcDbLine
10
31.846214059284836
20
-4.5108221566507583
30
0
11
31.846214059284836
21
-4.0108221566507654
31
0
0
LINE
5
220
100
AcDbEntity
8
0
100
AcDbLine
10
32.742023321848258
20
-8.162077913757436
30
0
11
32.491818723520673
21
-8.162077913757436
31
0
0
LINE
5
221
100
AcDbEntity
8
0
100
AcDbLine
10
25.743326779902414
20
-8.8801855928581404
30
0
11
25.743326779902414
21
-9.1301855928581421
31
0
0
LINE
5
222
100
AcDbEntity
8
0
100
AcDbLine
10
25.243326779902414
20
-9.1301855928581421
30
0
11
25.243326779902414
21
-8.8801855928581404
31
0
0
LINE
5
223
100
AcDbEntity
8
0
100
AcDbLine
10
24.243326779902414
20
-8.8802481347754938
30
0
11
23.743398162857893
21
-8.8802481347754938
31
0
0
LINE
5
224
100
AcDbEntity
8
0
100
AcDbLine
10
28.846214059284851
20
-4.5108221566507583
30
0
11
28.596009460957259
21
-4.5108221566507636
31
0
0
LINE
5
225
100
AcDbEntity
8
0
100
AcDbLine
10
28.596418657612432
20
-4.0108221566507654
30
0
11
28.596418657612432
21
-3.5108221566507667
31
0
0
LINE
5
226
100
AcDbEntity
8
0
100
AcDbLine
10
32.575493200743189
20
-11.177483516150099
30
0
11
32.575493200743189
21
-10.677483516150101
31
0
0
LINE
5
227
100
AcDbEntity
8
0
100
AcDbLine
10
26.743326779902411
20
-5.880310676692841
30
0
11
27.243326779902414
21
-5.880310676692841
31
0
0
LINE
5
228
100
AcDbEntity
8
0
100
AcDbLine
10
28.243398336219602
20
-5.880248134775492
30
0
11
28.243398336219602
21
-8.8802481347754938
31
0
0
LINE
5
229
100
AcDbEntity
8
0
100
AcDbLine
10
32.492227920175843
20
-7.1620779137574395
30
0
11
32.742023321848258
21
-7.1620779137574395
31
0
0
LINE
5
230
100
AcDbEntity
8
0
100
AcDbLine
10
35.74202332184823
20
-7.9120779137574342
30
0
11
35.74202332184823
21
-8.162077913757436
31
0
0
LINE
5
231
100
AcDbEntity
8
0
100
AcDbLine
10
31.846214059284836
20
-4.5108221566507583
30
0
11
32.096418657612425
21
-4.5108221566507636
31
0
0
LINE
5
232
100
AcDbEntity
8
0
100
AcDbLine
10
28.846214059284844
20
-3.5108221566507667
30
0
11
28.846214059284844
21
-3.1279129599955988
31
0
0
LINE
5
233
100
AcDbEntity
8
0
100
AcDbLine
10
28.846214059284844
20
-2.8320461297231816
30
0
11
28.846214059284844
21
-3.1279129599955988
31
0
0
LINE
5
234
100
AcDbEntity
8
0
100
AcDbLine
10
32.096009460957248
20
-3.5108221566507667
30
0
11
31.84621405928484
21
-3.5108221566507667
31
0
0
LINE
5
235
100
AcDbEntity
8
0
100
AcDbLine
10
24.743326779902414
20
-9.1301855928581421
30
0
11
24.243326779902414
21
-9.1301855928581421
31
0
0
LINE
5
236
100
AcDbEntity
8
0
100
AcDbLine
10
27.743326779902414
20
-9.1301855928581421
30
0
11
27.243326779902414
21
-9.1301855928581421
31
0
0
LINE
5
237
100
AcDbEntity
8
0
100
AcDbLine
10
28.596009460957266
20
-5.0108221566507618
30
0
11
28.846219200541444
21
-5.0108221566507618
31
0
0
LINE
5
238
100
AcDbEntity
8
0
100
AcDbLine
10
28.846214059284851
20
-4.5108221566507583
30
0
11
28.846214059284851
21
-4.0108221566507654
31
0
0
LINE
5
239
100
AcDbEntity
8
0
100
AcDbLine
10
35.991818723520645
20
-7.6620779137574377
30
0
11
35.991818723520645
21
-7.1620779137574395
31
0
0
LINE
5
240
100
AcDbEntity
8
0
100
AcDbLine
10
27.832594958555962
20
-13.133887350627958
30
0
11
27.832594958488745
21
-12.883660507273413
31
0
0
LINE
5
241
100
AcDbEntity
8
0
100
AcDbLine
10
27.243326779902414
20
-8.8802481347754938
30
0
11
26.743326779902411
21
-8.8802481347754938
31
0
0
LINE
5
242
100
AcDbEntity
8
0
100
AcDbLine
10
25.243326779902414
20
-8.8802481347754938
30
0
11
24.743326779902414
21
-8.8802481347754938
31
0
0
LINE
5
243
100
AcDbEntity
8
0
100
AcDbLine
10
27.743326779902414
20
-5.880310676692841
30
0
11
28.243398336219602
21
-5.880248134775492
31
0
0
LINE
5
244
100
AcDbEntity
8
0
100
AcDbLine
10
28.596009460957259
20
-4.5108221566507636
30
0
11
28.596009460957266
21
-5.0108221566507618
31
0
0
LINE
5
245
100
AcDbEntity
8
0
100
AcDbLine
10
28.846214059284851
20
-4.2608221566507671
30
0
11
28.846214059284851
21
-4.5108221566507583
31
0
0
LINE
5
246
100
AcDbEntity
8
0
100
AcDbLine
10
35.74202332184823
20
-9.0445779137574327
30
0
11
35.74202332184823
21
-9.3404447440298437
31
0
0
LINE
5
247
100
AcDbEntity
8
0
100
AcDbLine
10
35.74202332184823
20
-7.1620779137574395
30
0
11
35.74202332184823
21
-6.7791687171022712
31
0
0
LINE
5
248
100
AcDbEntity
8
0
100
AcDbLine
10
27.332594957325476
20
-12.883697302887027
30
0
11
27.332594957431386
21
-13.133887350627958
31
0
0
LINE
5
249
100
AcDbEntity
8
0
100
AcDbLine
10
35.74202332184823
20
-8.162077913757436
30
0
11
35.992227920175814
21
-8.162077913757436
31
0
0
LINE
5
250
100
AcDbEntity
8
0
100
AcDbLine
10
35.74202332184823
20
-7.6620779137574377
30
0
11
35.991818723520645
21
-7.6620779137574377
31
0
0
LINE
5
251
100
AcDbEntity
8
0
100
AcDbLine
10
35.991818723520645
20
-7.1620779137574395
30
0
11
35.74202332184823
21
-7.1620779137574395
31
0
0
LINE
5
252
100
AcDbEntity
8
0
100
AcDbLine
10
35.992227920175814
20
-8.6620779137574289
30
0
11
35.742018180591636
21
-8.6620779137574289
31
0
0
LINE
5
253
100
AcDbEntity
8
0
100
AcDbLine
10
35.992227920175814
20
-8.162077913757436
30
0
11
35.992227920175814
21
-8.6620779137574289
31
0
0
LINE
5
254
100
AcDbEntity
8
0
100
AcDbLine
10
26.088496037232041
20
-12.8837362076603
30
0
11
27.332594957325487
21
-12.8837362076603
31
0
0
LINE
5
255
100
AcDbEntity
8
0
100
AcDbLine
10
27.743326779902414
20
-8.8801855928581404
30
0
11
27.743326779902414
21
-9.1301855928581421
31
0
0
LINE
5
256
100
AcDbEntity
8
0
100
AcDbLine
10
15.652525626062543
20
-9.2927246541696853
30
0
11
16.006079016655814
21
-9.6462780447629601
31
0
0
LINE
5
257
100
AcDbEntity
8
0
100
AcDbLine
10
22.579341762784534
20
-5.4274517803562201
30
0
11
22.051428362858776
21
-5.42744254790271
31
0
0
LINE
5
258
100
AcDbEntity
8
0
100
AcDbLine
10
14.307336312378879
20
-7.9926594038303893
30
0
11
14.307336312378879
21
-7.8171625965619906
31
0
0
LINE
5
259
100
AcDbEntity
8
0
100
AcDbLine
10
21.945718794101666
20
-9.294442977441653
30
0
11
21.592165403508396
21
-9.6479963680349279
31
0
0
LINE
5
260
100
AcDbEntity
8
0
100
AcDbLine
10
14.559714074817068
20
-7.8171625965619906
30
0
11
14.307336312378879
21
-7.8171625965619906
31
0
0
LINE
5
261
100
AcDbEntity
8
0
100
AcDbLine
10
18.539337429535045
20
-13.161738470397774
30
0
11
19.039337429535049
21
-13.161738470397774
31
0
0
LINE
5
262
100
AcDbEntity
8
0
100
AcDbLine
10
18.051418655136921
20
-6.8557199335556689
30
0
11
18.051418655136956
21
-7.105719004269238
31
0
0
LWPOLYLINE
5
263
100
AcDbEntity
8
0
100
AcDbPolyline
90
4
70
1
43
0.0
10
18.25237047962284
20
-9.9143068897235818
10
18.25237047962284
20
-10.66509428972358
10
18.747252369622842
20
-10.66509428972358
10
18.747252369622842
20
-9.9143068897235818
0
LINE
5
264
100
AcDbEntity
8
0
100
AcDbLine
10
16.595156920985648
20
-5.4268807172339599
30
0
11
16.051408945457361
21
-5.4269207323146924
31
0
0
LINE
5
265
100
AcDbEntity
8
0
100
AcDbLine
10
18.539337429535045
20
-13.161738470397774
30
0
11
18.539337429535045
21
-12.911738470397776
31
0
0
LINE
5
266
100
AcDbEntity
8
0
100
AcDbLine
10
14.310153595569261
20
-6.3171627253476617
30
0
11
14.307336312378879
21
-6.3171627253476617
31
0
0
LINE
5
267
100
AcDbEntity
8
0
100
AcDbLine
10
22.12264016226316
20
-9.4713643456031456
30
0
11
21.945718794101666
21
-9.294442977441653
31
0
0
LINE
5
268
100
AcDbEntity
8
0
100
AcDbLine
10
16.539408858095047
20
-12.090309867043478
30
0
11
16.289408858095047
21
-12.090309867043478
31
0
0
LINE
5
269
100
AcDbEntity
8
0
100
AcDbLine
10
16.539408858095047
20
-12.590309867043477
30
0
11
16.539408858095047
21
-12.090309867043478
31
0
0
LINE
5
270
100
AcDbEntity
8
0
100
AcDbLine
10
17.059696786808388
20
-5.8914332927846518
30
0
11
17.059696786808388
21
-6.3914332927846509
31
0
0
LINE
5
271
100
AcDbEntity
8
0
100
AcDbLine
10
14.559860538805907
20
-6.8173091464079461
30
0
11
14.560153552640706
21
-6.3173092322650612
31
0
0
LINE
5
272
100
AcDbEntity
8
0
100
AcDbLine
10
14.307336312378879
20
-7.3171625965619889
30
0
11
14.307336312378879
21
-6.8171626394905482
31
0
0
LINE
5
273
100
AcDbEntity
8
0
100
AcDbLine
10
18.051418655136956
20
-7.105719004269238
30
0
11
18.551418655137137
21
-7.105719004269238
31
0
0
LINE
5
274
100
AcDbEntity
8
0
100
AcDbLine
10
15.551408944294089
20
-5.4269575279283115
30
0
11
15.022748466308787
21
-5.4269964327015874
31
0
0
LINE
5
275
100
AcDbEntity
8
0
100
AcDbLine
10
22.299561530424651
20
-8.9411789325780902
30
0
11
22.653114921017924
21
-8.5876255419848153
31
0
0
LINE
5
276
100
AcDbEntity
8
0
100
AcDbLine
10
15.298972235469273
20
-8.9391712635764087
30
0
11
14.945418844876
21
-8.5856178729831356
31
0
0
LINE
5
277
100
AcDbEntity
8
0
100
AcDbLine
10
15.298972235469273
20
-9.2927246541696817
30
0
11
15.475748930765908
21
-9.4695013494663201
31
0
0
LINE
5
278
100
AcDbEntity
8
0
100
AcDbLine
10
18.551418655137109
20
-6.8557197310872704
30
0
11
19.051418655137297
21
-6.8557195286188675
31
0
0
LINE
5
279
100
AcDbEntity
8
0
100
AcDbLine
10
16.595156920985648
20
-5.4268807172339599
30
0
11
17.309696786808388
21
-5.4269460107144765
31
0
0
LINE
5
280
100
AcDbEntity
8
0
100
AcDbLine
10
14.945418844876
20
-8.5856178729831356
30
0
11
14.768642149579367
21
-8.7623945682797668
31
0
0
LINE
5
281
100
AcDbEntity
8
0
100
AcDbLine
10
14.309860581734466
20
-6.8171626394905482
30
0
11
14.307336312378879
21
-6.8171626394905482
31
0
0
LINE
5
282
100
AcDbEntity
8
0
100
AcDbLine
10
18.023999788745332
20
-6.8557199446585759
30
0
11
18.051418655136921
21
-6.8557199335556689
31
0
0
LINE
5
283
100
AcDbEntity
8
0
100
AcDbLine
10
16.28940882618075
20
-13.161738470397774
30
0
11
16.860694444657852
21
-13.161738470397774
31
0
0
LINE
5
284
100
AcDbEntity
8
0
100
AcDbLine
10
21.289408985852237
20
-11.590309898957775
30
0
11
21.039408985852237
21
-11.590309898957775
31
0
0
LINE
5
285
100
AcDbEntity
8
0
100
AcDbLine
10
22.476193552856433
20
-9.1178109550098707
30
0
11
22.299561530424651
21
-8.9411789325780902
31
0
0
LINE
5
286
100
AcDbEntity
8
0
100
AcDbLine
10
20.289409022710338
20
-6.8557193150475531
30
0
11
19.578837521097181
21
-6.8557193150475531
31
0
0
LINE
5
287
100
AcDbEntity
8
0
100
AcDbLine
10
14.307283736022402
20
-5.4269964327015874
30
0
11
15.022748466308787
21
-5.4269964327015874
31
0
0
LINE
5
288
100
AcDbEntity
8
0
100
AcDbLine
10
14.505244873587378
20
-8.4989972922877772
30
0
11
14.768642149579367
21
-8.7623945682797668
31
0
0
LINE
5
289
100
AcDbEntity
8
0
100
AcDbLine
10
20.543139742515375
20
-5.8914318822104468
30
0
11
20.543140147452188
21
-6.3914318822102034
31
0
0
LINE
5
290
100
AcDbEntity
8
0
100
AcDbLine
10
14.309860581734466
20
-6.8171626394905482
30
0
11
14.559860538805907
21
-6.8173091464079461
31
0
0
LINE
5
291
100
AcDbEntity
8
0
100
AcDbLine
10
21.289408985852237
20
-10.304595522014068
30
0
11
21.289408985852237
21
-10.600462352286479
31
0
0
LINE
5
292
100
AcDbEntity
8
0
100
AcDbLine
10
14.307336312378879
20
-7.9926594038303893
30
0
11
14.307336312378879
21
-8.3010887310792789
31
0
0
LINE
5
293
100
AcDbEntity
8
0
100
AcDbLine
10
14.307336312378879
20
-8.3010887310792789
30
0
11
14.505244873587378
21
-8.4989972922877772
31
0
0
LWPOLYLINE
5
294
100
AcDbEntity
8
0
100
AcDbPolyline
90
4
70
1
43
0.0
10
23.301567431810707
20
-5.4276409692469771
10
22.579112806383197
20
-5.4276409692469771
10
22.579341762784534
20
-5.4274517803562201
10
23.301790636583657
20
-5.4274517803562201
0
LINE
5
295
100
AcDbEntity
8
0
100
AcDbLine
10
22.12264016226316
20
-9.4713643456031456
30
0
11
22.476193552856433
21
-9.1178109550098707
31
0
0
LINE
5
296
100
AcDbEntity
8
0
100
AcDbLine
10
20.296874908851972
20
-5.4237082014526194
30
0
11
20.294436398859677
21
-5.8914320836287262
31
0
0
LINE
5
297
100
AcDbEntity
8
0
100
AcDbLine
10
16.539408858095047
20
-11.590309867043478
30
0
11
16.539408858095047
21
-11.090309860123037
31
0
0
LINE
5
298
100
AcDbEntity
8
0
100
AcDbLine
10
19.551418655137482
20
-6.8557193261504601
30
0
11
19.55141865513778
21
-7.105719004269238
31
0
0
LINE
5
299
100
AcDbEntity
8
0
100
AcDbLine
10
15.122195540172635
20
-9.115947958873047
30
0
11
15.475748930765908
21
-9.4695013494663201
31
0
0
LINE
5
300
100
AcDbEntity
8
0
100
AcDbLine
10
15.122195540172635
20
-9.115947958873047
30
0
11
15.298972235469273
21
-8.9391712635764087
31
0
0
LINE
5
301
100
AcDbEntity
8
0
100
AcDbLine
10
19.539337429535045
20
-13.161738470397774
30
0
11
20.039337429535049
21
-13.161738470397774
31
0
0
LINE
5
302
100
AcDbEntity
8
0
100
AcDbLine
10
23.309714074997064
20
-7.3149236025968261
30
0
11
23.059714074997064
21
-7.3149236025968261
31
0
0
LINE
5
303
100
AcDbEntity
8
0
100
AcDbLine
10
23.309714074997064
20
-7.9884236025968258
30
0
11
23.309714074997064
21
-8.2842904328692395
31
0
0
LINE
5
304
100
AcDbEntity
8
0
100
AcDbLine
10
22.829746943449706
20
-8.7642575644165976
30
0
11
23.10050463298327
21
-8.4934998748830317
31
0
0
LINE
5
305
100
AcDbEntity
8
0
100
AcDbLine
10
20.293139742515457
20
-5.8914320846788515
30
0
11
20.543139742515375
21
-5.8914318822104468
31
0
0
LINE
5
306
100
AcDbEntity
8
0
100
AcDbLine
10
23.309714074997064
20
-8.2842904328692395
30
0
11
23.10050463298327
21
-8.4934998748830317
31
0
0
LINE
5
307
100
AcDbEntity
8
0
100
AcDbLine
10
22.051428362858776
20
-5.42744254790271
30
0
11
22.051428362856761
21
-5.67714757566924
31
0
0
LINE
5
308
100
AcDbEntity
8
0
100
AcDbLine
10
16.539408858095047
20
-12.090309867043478
30
0
11
16.289408858095047
21
-12.090309867043478
31
0
0
LWPOLYLINE
5
309
100
AcDbEntity
8
0
100
AcDbPolyline
90
4
70
1
43
0.0
10
23.301567431810707
20
-6.1414332899692381
10
23.301567431810707
20
-5.4276409692469771
10
23.309714074357355
20
-5.4276411699365461
10
23.309714074357355
20
-6.1414332899692381
0
LINE
5
310
100
AcDbEntity
8
0
100
AcDbLine
10
20.539337429535045
20
-12.911738470397776
30
0
11
20.039337429535049
21
-12.911738470397776
31
0
0
LINE
5
311
100
AcDbEntity
8
0
100
AcDbLine
10
14.559714074817068
20
-7.3171625965619889
30
0
11
14.559714074817068
21
-7.8171625965619906
31
0
0
LINE
5
312
100
AcDbEntity
8
0
100
AcDbLine
10
21.289408985852237
20
-11.090309898957775
30
0
11
21.289408985852237
21
-10.600462352286479
31
0
0
LINE
5
313
100
AcDbEntity
8
0
100
AcDbLine
10
16.539408858095047
20
-11.090309867043478
30
0
11
16.289408858095047
21
-11.090309867043478
31
0
0
LINE
5
314
100
AcDbEntity
8
0
100
AcDbLine
10
17.059696786808388
20
-6.3914332927846509
30
0
11
17.309696786808388
21
-6.3914332927846509
31
0
0
LINE
5
315
100
AcDbEntity
8
0
100
AcDbLine
10
14.307336312378879
20
-6.3171627253476617
30
0
11
14.307336312378879
21
-6.1414342614124493
31
0
0
LINE
5
316
100
AcDbEntity
8
0
100
AcDbLine
10
19.551418655137482
20
-6.8557193261504601
30
0
11
19.578837521097181
21
-6.8557193150475531
31
0
0
LINE
5
317
100
AcDbEntity
8
0
100
AcDbLine
10
17.309696786808388
20
-5.4269460107144765
30
0
11
17.309696786808388
21
-5.8914332927846518
31
0
0
LINE
5
318
100
AcDbEntity
8
0
100
AcDbLine
10
20.717980414412239
20
-13.161738470397774
30
0
11
21.289408985852237
21
-13.161738470397774
31
0
0
LINE
5
319
100
AcDbEntity
8
0
100
AcDbLine
10
20.039337429535049
20
-12.911738470397776
30
0
11
20.039337429535049
21
-13.161738470397774
31
0
0
LINE
5
320
100
AcDbEntity
8
0
100
AcDbLine
10
21.551428362856978
20
-5.42743380361481
30
0
11
21.007429692572831
21
-5.42742428985283
31
0
0
LINE
5
321
100
AcDbEntity
8
0
100
AcDbLine
10
17.309673942218588
20
-6.3914332927846509
30
0
11
17.309631516466155
21
-6.8557199446585759
31
0
0
LINE
5
322
100
AcDbEntity
8
0
100
AcDbLine
10
20.539337429535045
20
-13.161738470397774
30
0
11
20.539337429535045
21
-12.911738470397776
31
0
0
LINE
5
323
100
AcDbEntity
8
0
100
AcDbLine
10
16.539408858095047
20
-12.590309867043477
30
0
11
16.539408858095047
21
-12.090309867043478
31
0
0
LWPOLYLINE
5
324
100
AcDbEntity
8
0
100
AcDbPolyline
90
4
70
1
43
0.0
10
19.347252369622844
20
-10.66509428972358
10
19.347252369622844
20
-9.9143068897235818
10
18.852370479622842
20
-9.9143068897235818
10
18.852370479622842
20
-10.66509428972358
0
LINE
5
325
100
AcDbEntity
8
0
100
AcDbLine
10
17.539337429535049
20
-12.911738470397776
30
0
11
17.039337429535045
21
-12.911738470397776
31
0
0
LINE
5
326
100
AcDbEntity
8
0
100
AcDbLine
10
19.039337429535049
20
-12.911738470397776
30
0
11
19.039337429535049
21
-13.161738470397774
31
0
0
LINE
5
327
100
AcDbEntity
8
0
100
AcDbLine
10
20.539337429535045
20
-13.161738470397774
30
0
11
20.717980414412239
21
-13.161738470397774
31
0
0
LINE
5
328
100
AcDbEntity
8
0
100
AcDbLine
10
15.551408944294089
20
-5.4269575279283115
30
0
11
15.551408944400004
21
-5.67714757566924
31
0
0
LINE
5
329
100
AcDbEntity
8
0
100
AcDbLine
10
17.309631516466155
20
-6.8557199446585759
30
0
11
18.023999788745332
21
-6.8557199446585759
31
0
0
LINE
5
330
100
AcDbEntity
8
0
100
AcDbLine
10
16.539408858095047
20
-12.590309867043477
30
0
11
16.539408858095047
21
-12.090309867043478
31
0
0
LINE
5
331
100
AcDbEntity
8
0
100
AcDbLine
10
16.539408858095047
20
-12.090309867043478
30
0
11
16.289408858095047
21
-12.090309867043478
31
0
0
LINE
5
332
100
AcDbEntity
8
0
100
AcDbLine
10
19.55141865513778
20
-7.105719004269238
30
0
11
19.051418655137315
21
-7.105719004269238
31
0
0
LINE
5
333
100
AcDbEntity
8
0
100
AcDbLine
10
23.309714074997064
20
-7.0649236025968252
30
0
11
23.309714074997064
21
-6.8149236025968261
31
0
0
LINE
5
334
100
AcDbEntity
8
0
100
AcDbLine
10
19.539337429535045
20
-13.161738470397774
30
0
11
19.539337429535045
21
-12.911738470397776
31
0
0
LINE
5
335
100
AcDbEntity
8
0
100
AcDbLine
10
17.539337429535049
20
-13.161738470397774
30
0
11
17.539337429535049
21
-12.911738470397776
31
0
0
LINE
5
336
100
AcDbEntity
8
0
100
AcDbLine
10
15.551408944400004
20
-5.67714757566924
30
0
11
16.051408945524582
21
-5.67714757566924
31
0
0
LINE
5
337
100
AcDbEntity
8
0
100
AcDbLine
10
16.539408858095047
20
-11.090309860123037
30
0
11
16.294532021463478
21
-11.090309857523536
31
0
0
LINE
5
338
100
AcDbEntity
8
0
100
AcDbLine
10
20.289409022710338
20
-6.8557193150475531
30
0
11
20.29314014745227
21
-6.391432084678609
31
0
0
LINE
5
339
100
AcDbEntity
8
0
100
AcDbLine
10
16.093760031019922
20
-10.087512449720339
30
0
11
16.295948171023166
21
-10.289700589723587
31
0
0
LINE
5
340
100
AcDbEntity
8
0
100
AcDbLine
10
21.498618427866031
20
-10.095386080000274
30
0
11
21.769086771669883
21
-9.8249177361964186
31
0
0
LINE
5
341
100
AcDbEntity
8
0
100
AcDbLine
10
19.051418655137315
20
-7.105719004269238
30
0
11
19.051418655137297
21
-6.8557195286188675
31
0
0
LINE
5
342
100
AcDbEntity
8
0
100
AcDbLine
10
17.039337429535045
20
-12.911738470397776
30
0
11
17.039337429535045
21
-13.161738470397774
31
0
0
LINE
5
343
100
AcDbEntity
8
0
100
AcDbLine
10
18.551418655137137
20
-7.105719004269238
30
0
11
18.551418655137109
21
-6.8557197310872704
31
0
0
LINE
5
344
100
AcDbEntity
8
0
100
AcDbLine
10
21.289408985852237
20
-13.161738470397774
30
0
11
21.289408985852237
21
-12.590309898957774
31
0
0
LINE
5
345
100
AcDbEntity
8
0
100
AcDbLine
10
16.295948171023166
20
-10.596223178721264
30
0
11
16.294532021463478
21
-11.090309857523536
31
0
0
LINE
5
346
100
AcDbEntity
8
0
100
AcDbLine
10
21.039408985852237
20
-11.090309898957775
30
0
11
21.289408985852237
21
-11.090309898957775
31
0
0
LINE
5
347
100
AcDbEntity
8
0
100
AcDbLine
10
21.007429692572831
20
-5.42742428985283
30
0
11
20.296874908851972
21
-5.4237082014526194
31
0
0
LINE
5
348
100
AcDbEntity
8
0
100
AcDbLine
10
22.051428362856761
20
-5.67714757566924
30
0
11
21.55142836285502
21
-5.67714757566924
31
0
0
LINE
5
349
100
AcDbEntity
8
0
100
AcDbLine
10
21.039408985852237
20
-12.090309898957775
30
0
11
21.289408985852237
21
-12.090309898957775
31
0
0
LINE
5
350
100
AcDbEntity
8
0
100
AcDbLine
10
16.289408858095047
20
-11.590309867043478
30
0
11
16.539408858095047
21
-11.590309867043478
31
0
0
LINE
5
351
100
AcDbEntity
8
0
100
AcDbLine
10
17.309696786808388
20
-5.8914332927846518
30
0
11
17.059696786808388
21
-5.8914332927846518
31
0
0
LINE
5
352
100
AcDbEntity
8
0
100
AcDbLine
10
17.039337429535045
20
-13.161738470397774
30
0
11
16.860694444657852
21
-13.161738470397774
31
0
0
LINE
5
353
100
AcDbEntity
8
0
100
AcDbLine
10
19.539337429535045
20
-12.911738470397776
30
0
11
19.039337429535049
21
-12.911738470397776
31
0
0
LINE
5
354
100
AcDbEntity
8
0
100
AcDbLine
10
16.295948171023166
20
-10.289700589723587
30
0
11
16.295948171023166
21
-10.596223178721264
31
0
0
LINE
5
355
100
AcDbEntity
8
0
100
AcDbLine
10
21.039408985852237
20
-12.590309898957774
30
0
11
21.039408985852237
21
-12.090309898957775
31
0
0
LINE
5
356
100
AcDbEntity
8
0
100
AcDbLine
10
16.289408858095047
20
-11.590309867043478
30
0
11
16.539408858095047
21
-11.590309867043478
31
0
0
LINE
5
357
100
AcDbEntity
8
0
100
AcDbLine
10
17.539337429535049
20
-13.161738470397774
30
0
11
18.039337429535045
21
-13.161738470397774
31
0
0
LINE
5
358
100
AcDbEntity
8
0
100
AcDbLine
10
16.289408858095047
20
-11.590309867043478
30
0
11
16.289408858095047
21
-12.090309867043478
31
0
0
LINE
5
359
100
AcDbEntity
8
0
100
AcDbLine
10
18.039337429535045
20
-12.911738470397776
30
0
11
18.039337429535045
21
-13.161738470397774
31
0
0
LINE
5
360
100
AcDbEntity
8
0
100
AcDbLine
10
16.539408858095047
20
-12.590309867043477
30
0
11
16.289265873217854
21
-12.590309898957774
31
0
0
LINE
5
361
100
AcDbEntity
8
0
100
AcDbLine
10
23.309714074373495
20
-6.3149236025968269
30
0
11
23.309714074357355
21
-6.1414332899692381
31
0
0
LINE
5
362
100
AcDbEntity
8
0
100
AcDbLine
10
15.829302321359181
20
-9.8230547400595949
30
0
11
16.093760031019922
21
-10.087512449720339
31
0
0
LINE
5
363
100
AcDbEntity
8
0
100
AcDbLine
10
16.006079016655814
20
-9.6462780447629601
30
0
11
15.829302321359181
21
-9.8230547400595949
31
0
0
LINE
5
364
100
AcDbEntity
8
0
100
AcDbLine
10
16.539408858095047
20
-11.590309867043478
30
0
11
16.539408858095047
21
-11.090309867043478
31
0
0
LINE
5
365
100
AcDbEntity
8
0
100
AcDbLine
10
23.309714074997064
20
-7.3149236025968261
30
0
11
23.309714074997064
21
-6.8149236025968261
31
0
0
LINE
5
366
100
AcDbEntity
8
0
100
AcDbLine
10
23.059714074997064
20
-6.8149236025968261
30
0
11
23.059714074997064
21
-6.3149236025968269
31
0
0
LINE
5
367
100
AcDbEntity
8
0
100
AcDbLine
10
16.539408858095047
20
-12.090309867043478
30
0
11
16.289408858095047
21
-12.090309867043478
31
0
0
LINE
5
368
100
AcDbEntity
8
0
100
AcDbLine
10
23.309714074997064
20
-7.9884236025968258
30
0
11
23.309714074997064
21
-7.8149236025968261
31
0
0
LINE
5
369
100
AcDbEntity
8
0
100
AcDbLine
10
16.539408858095047
20
-12.590309867043477
30
0
11
16.539408858095047
21
-12.090309867043478
31
0
0
LINE
5
370
100
AcDbEntity
8
0
100
AcDbLine
10
16.539408858095047
20
-11.590309867043478
30
0
11
16.539408858095047
21
-11.090309867043478
31
0
0
LINE
5
371
100
AcDbEntity
8
0
100
AcDbLine
10
16.289265873217854
20
-12.590309898957774
30
0
11
16.28940882618075
21
-13.161738470397774
31
0
0
LINE
5
372
100
AcDbEntity
8
0
100
AcDbLine
10
23.309714074997064
20
-6.8149236025968261
30
0
11
23.059714074997064
21
-6.8149236025968261
31
0
0
LINE
5
373
100
AcDbEntity
8
0
100
AcDbLine
10
23.059714074997064
20
-7.3149236025968261
30
0
11
23.059714074997064
21
-7.8149236025968261
31
0
0
LINE
5
374
100
AcDbEntity
8
0
100
AcDbLine
10
16.289408858095047
20
-11.590309867043478
30
0
11
16.539408858095047
21
-11.590309867043478
31
0
0
LINE
5
375
100
AcDbEntity
8
0
100
AcDbLine
10
21.55142836285502
20
-5.67714757566924
30
0
11
21.551428362856978
21
-5.42743380361481
31
0
0
LINE
5
376
100
AcDbEntity
8
0
100
AcDbLine
10
23.059714074997064
20
-7.8149236025968261
30
0
11
23.309714074997064
21
-7.8149236025968261
31
0
0
LINE
5
377
100
AcDbEntity
8
0
100
AcDbLine
10
23.059714074997064
20
-6.3149236025968269
30
0
11
23.309714074373495
21
-6.3149236025968269
31
0
0
LINE
5
378
100
AcDbEntity
8
0
100
AcDbLine
10
20.543140147452188
20
-6.3914318822102034
30
0
11
20.29314014745227
21
-6.391432084678609
31
0
0
CIRCLE
5
379
100
AcDbEntity
8
0
100
AcDbCircle
10
21.66777579709423
20
-7.1990546980849661
30
0
40
0.19015749999999926
210
0
220
0
230
1
0
LINE
5
380
100
AcDbEntity
8
0
100
AcDbLine
10
14.307336312378879
20
-7.3171625965619889
30
0
11
14.559714074817068
21
-7.3171625965619889
31
0
0
LINE
5
381
100
AcDbEntity
8
0
100
AcDbLine
10
16.539408858095047
20
-11.090309867043478
30
0
11
16.289408858095047
21
-11.090309867043478
31
0
0
LINE
5
382
100
AcDbEntity
8
0
100
AcDbLine
10
14.560153552640706
20
-6.3173092322650612
30
0
11
14.310153595569261
21
-6.3171627253476617
31
0
0
LINE
5
383
100
AcDbEntity
8
0
100
AcDbLine
10
21.592165403508396
20
-9.6479963680349279
30
0
11
21.769090407087287
21
-9.8249213716138204
31
0
0
LINE
5
384
100
AcDbEntity
8
0
100
AcDbLine
10
22.653114921017924
20
-8.5876255419848153
30
0
11
22.829746943449706
21
-8.7642575644165976
31
0
0
LINE
5
385
100
AcDbEntity
8
0
100
AcDbLine
10
18.539337429535045
20
-12.911738470397776
30
0
11
18.039337429535045
21
-12.911738470397776
31
0
0
LINE
5
386
100
AcDbEntity
8
0
100
AcDbLine
10
21.289408985852237
20
-12.590309898957774
30
0
11
21.039408985852237
21
-12.590309898957774
31
0
0
LINE
5
387
100
AcDbEntity
8
0
100
AcDbLine
10
21.289408985852237
20
-12.090309898957775
30
0
11
21.289408985852237
21
-11.590309898957775
31
0
0
LINE
5
388
100
AcDbEntity
8
0
100
AcDbLine
10
22.299416857559798
20
-9.294587650306509
30
0
11
22.12264016226316
21
-9.4713643456031456
31
0
0
LINE
5
389
100
AcDbEntity
8
0
100
AcDbLine
10
16.051408945524582
20
-5.67714757566924
30
0
11
16.051408945457361
21
-5.4269207323146924
31
0
0
LINE
5
390
100
AcDbEntity
8
0
100
AcDbLine
10
14.307336312378879
20
-6.1414342614124493
30
0
11
14.307283736022402
21
-5.4269964327015874
31
0
0
LINE
5
391
100
AcDbEntity
8
0
100
AcDbLine
10
21.498618427866031
20
-10.095386080000274
30
0
11
21.289408985852237
21
-10.304595522014068
31
0
0
LINE
5
392
100
AcDbEntity
8
0
100
AcDbLine
10
21.039408985852237
20
-11.590309898957775
30
0
11
21.039408985852237
21
-11.090309898957775
31
0
0
LINE
5
393
100
AcDbEntity
8
0
100
AcDbLine
10
15.475748930765908
20
-9.4695013494663201
30
0
11
15.652525626062543
21
-9.2927246541696853
31
0
0
LINE
5
394
100
AcDbEntity
8
0
100
AcDbLine
10
18.555381236017357
20
-4.2213363950218721
30
0
11
18.555381236069447
21
-4.2213363950218721
31
0
0
LINE
5
395
100
AcDbEntity
8
0
100
AcDbLine
10
18.555381236069447
20
-4.9356221032652163
30
0
11
18.555381236069447
21
-4.9356221031974803
31
0
0
LINE
5
396
100
AcDbEntity
8
0
100
AcDbLine
10
18.555381236069447
20
-4.9356221031974803
30
0
11
18.555381236017357
21
-4.9356221031974803
31
0
0
LINE
5
397
100
AcDbEntity
8
0
100
AcDbLine
10
19.269666949815885
20
-4.9356221031974803
30
0
11
19.269666949815885
21
-4.9356221032652163
31
0
0
LINE
5
398
100
AcDbEntity
8
0
100
AcDbLine
10
22.555863722124315
20
2.5891991884852597
30
0
11
23.055863722124311
21
2.5891991884852597
31
0
0
LINE
5
399
100
AcDbEntity
8
0
100
AcDbLine
10
25.805792325478606
20
2.839199188485261
30
0
11
25.234506707001504
21
2.8391991884852605
31
0
0
LINE
5
400
100
AcDbEntity
8
0
100
AcDbLine
10
22.055863722124315
20
2.5891991884852597
30
0
11
22.055863722124315
21
2.8391991884852592
31
0
0
LINE
5
401
100
AcDbEntity
8
0
100
AcDbLine
10
20.805792165807123
20
0.76777061704526062
30
0
11
20.805792165807123
21
0.27792307037396685
31
0
0
LINE
5
402
100
AcDbEntity
8
0
100
AcDbLine
10
24.043782496522439
20
-3.466819348356839
30
0
11
24.043782496522404
21
-3.2168202776432699
31
0
0
LINE
5
403
100
AcDbEntity
8
0
100
AcDbLine
10
19.035487076662303
20
-3.0076156793156859
30
0
11
19.035487076662303
21
-2.5076156793156863
31
0
0
LINE
5
404
100
AcDbEntity
8
0
100
AcDbLine
10
23.555863722124315
20
2.5891991884852601
30
0
11
24.055863722124311
21
2.5891991884852605
31
0
0
LINE
5
405
100
AcDbEntity
8
0
100
AcDbLine
10
24.043782496522404
20
-3.2168202776432699
30
0
11
23.543782496522226
21
-3.2168202776432699
31
0
0
LINE
5
406
100
AcDbEntity
8
0
100
AcDbLine
10
21.555863722124311
20
2.8391991884852592
30
0
11
21.377220737247121
21
2.8391991884852588
31
0
0
LINE
5
407
100
AcDbEntity
8
0
100
AcDbLine
10
20.805792165807123
20
-0.017943759898446144
30
0
11
20.805792165807123
21
0.27792307037396685
31
0
0
LINE
5
408
100
AcDbEntity
8
0
100
AcDbLine
10
19.795784294099573
20
-1.0279516316060049
30
0
11
19.972560989396207
21
-0.85117493630936847
31
0
0
LINE
5
409
100
AcDbEntity
8
0
100
AcDbLine
10
22.555863722124315
20
2.8391991884852592
30
0
11
22.555863722124315
21
2.5891991884852597
31
0
0
LINE
5
410
100
AcDbEntity
8
0
100
AcDbLine
10
19.499772790962304
20
-4.8953917001188811
30
0
11
19.499772790962304
21
-4.8953917001866172
31
0
0
LINE
5
411
100
AcDbEntity
8
0
100
AcDbLine
10
24.785527209440772
20
-3.9311059891278579
30
0
11
24.785569635193212
21
-3.4668193372539315
31
0
0
LINE
5
412
100
AcDbEntity
8
0
100
AcDbLine
10
25.035504364850972
20
-4.4311059891278566
30
0
11
25.035504364850972
21
-3.9311059891278579
31
0
0
LINE
5
413
100
AcDbEntity
8
0
100
AcDbLine
10
20.503035748150971
20
-0.67454291387758503
30
0
11
20.326110744572077
21
-0.49761791029869157
31
0
0
LINE
5
414
100
AcDbEntity
8
0
100
AcDbLine
10
25.500044230673709
20
-4.8956585646785529
30
0
11
24.785504364850972
21
-4.8955932711980381
31
0
0
LINE
5
415
100
AcDbEntity
8
0
100
AcDbLine
10
19.44208623064144
20
-1.734913739927697
30
0
11
19.265454208209658
21
-1.5582817174959156
31
0
0
LINE
5
416
100
AcDbEntity
8
0
100
AcDbLine
10
20.596582723793329
20
-0.22715320191223973
30
0
11
20.326114379989477
21
-0.49762154571609352
31
0
0
LINE
5
417
100
AcDbEntity
8
0
100
AcDbLine
10
24.555863722124311
20
2.8391991884852597
30
0
11
24.055863722124311
21
2.8391991884852597
31
0
0
LINE
5
418
100
AcDbEntity
8
0
100
AcDbLine
10
23.555863722124315
20
2.8391991884852592
30
0
11
23.555863722124315
21
2.5891991884852601
31
0
0
LINE
5
419
100
AcDbEntity
8
0
100
AcDbLine
10
19.035487076662303
20
-4.0076156793156841
30
0
11
18.785487077151124
21
-4.0076156793156841
31
0
0
LINE
5
420
100
AcDbEntity
8
0
100
AcDbLine
10
19.035487076662303
20
-3.5076156793156845
30
0
11
19.035487076662303
21
-4.0076156793156841
31
0
0
LINE
5
421
100
AcDbEntity
8
0
100
AcDbLine
10
18.785487076662299
20
-3.2576156793156854
30
0
11
18.785487076662299
21
-3.5076156793156845
31
0
0
LINE
5
422
100
AcDbEntity
8
0
100
AcDbLine
10
20.043772788861279
20
-4.6453917062432692
30
0
11
20.543772788861279
21
-4.6453917062432692
31
0
0
LINE
5
423
100
AcDbEntity
8
0
100
AcDbLine
10
23.543782496522226
20
-3.2168202776432699
30
0
11
23.543782496522255
21
-3.4668195508252415
31
0
0
LINE
5
424
100
AcDbEntity
8
0
100
AcDbLine
10
19.035487076662303
20
-2.5076156793156863
30
0
11
18.785487076662299
21
-2.5076156793156863
31
0
0
LINE
5
425
100
AcDbEntity
8
0
100
AcDbLine
10
25.055863722124311
20
2.8391991884852605
30
0
11
25.234506707001504
21
2.8391991884852605
31
0
0
LINE
5
426
100
AcDbEntity
8
0
100
AcDbLine
10
21.798324860483238
20
-4.8990962295654121
30
0
11
21.800764752845211
21
-4.4311071982838621
31
0
0
LINE
5
427
100
AcDbEntity
8
0
100
AcDbLine
10
21.377220737247121
20
2.8391991884852588
30
0
11
20.805792165807123
21
2.8391991884852588
31
0
0
LINE
5
428
100
AcDbEntity
8
0
100
AcDbLine
10
24.555863722124311
20
2.8391991884852597
30
0
11
24.555863722124311
21
2.5891991884852605
31
0
0
LINE
5
429
100
AcDbEntity
8
0
100
AcDbLine
10
22.543782496521882
20
-3.4668199557620474
30
0
11
22.543782496521583
21
-3.2168202776432699
31
0
0
LINE
5
430
100
AcDbEntity
8
0
100
AcDbLine
10
22.543782496521583
20
-3.2168202776432699
30
0
11
23.043782496522049
21
-3.2168202776432699
31
0
0
LINE
5
431
100
AcDbEntity
8
0
100
AcDbLine
10
21.555863722124311
20
2.5891991884852597
30
0
11
22.055863722124315
21
2.5891991884852597
31
0
0
LINE
5
432
100
AcDbEntity
8
0
100
AcDbLine
10
24.785569635193212
20
-3.4668193372539315
30
0
11
24.071201362914028
21
-3.4668193372539315
31
0
0
LINE
5
433
100
AcDbEntity
8
0
100
AcDbLine
10
22.543782496521882
20
-3.4668199557620474
30
0
11
22.516363630562182
21
-3.4668199668649562
31
0
0
LINE
5
434
100
AcDbEntity
8
0
100
AcDbLine
10
18.785487077215862
20
-4.8953917001188811
30
0
11
18.785487077163776
21
-4.8953917001188811
31
0
0
LINE
5
435
100
AcDbEntity
8
0
100
AcDbLine
10
24.055863722124311
20
2.5891991884852605
30
0
11
24.055863722124311
21
2.8391991884852597
31
0
0
LINE
5
436
100
AcDbEntity
8
0
100
AcDbLine
10
24.785504364850972
20
-4.4311059891278575
30
0
11
25.035504364850972
21
-4.4311059891278566
31
0
0
LINE
5
437
100
AcDbEntity
8
0
100
AcDbLine
10
25.055863722124311
20
2.5891991884852605
30
0
11
25.055863722124311
21
2.8391991884852605
31
0
0
LINE
5
438
100
AcDbEntity
8
0
100
AcDbLine
10
23.055863722124311
20
2.5891991884852597
30
0
11
23.055863722124311
21
2.8391991884852592
31
0
0
LINE
5
439
100
AcDbEntity
8
0
100
AcDbLine
10
20.043772788861279
20
-4.8953917002382061
30
0
11
20.043772788861279
21
-4.6453917062432692
31
0
0
LINE
5
440
100
AcDbEntity
8
0
100
AcDbLine
10
24.071201362914028
20
-3.4668193372539315
30
0
11
24.043782496522439
21
-3.466819348356839
31
0
0
LINE
5
441
100
AcDbEntity
8
0
100
AcDbLine
10
20.805792165807123
20
2.2677706170452585
30
0
11
21.055792165807123
21
2.2677706170452585
31
0
0
LINE
5
442
100
AcDbEntity
8
0
100
AcDbLine
10
21.802061409143906
20
-4.431107197233735
30
0
11
21.552061409143988
21
-4.4311073997021424
31
0
0
LINE
5
443
100
AcDbEntity
8
0
100
AcDbLine
10
21.552061004207175
20
-3.9311073997023058
30
0
11
21.802061004207093
21
-3.9311071972339002
31
0
0
LINE
5
444
100
AcDbEntity
8
0
100
AcDbLine
10
20.805792165807123
20
2.8391991884852588
30
0
11
20.805792165807123
21
2.2677706170452585
31
0
0
LINE
5
445
100
AcDbEntity
8
0
100
AcDbLine
10
21.087772786760265
20
-4.8953917003372087
30
0
11
21.798324860483238
21
-4.8990962295654121
31
0
0
LINE
5
446
100
AcDbEntity
8
0
100
AcDbLine
10
18.785487076662299
20
-2.3341156793156861
30
0
11
18.785487076662299
21
-2.0382488490432746
31
0
0
LINE
5
447
100
AcDbEntity
8
0
100
AcDbLine
10
18.785487077215862
20
-4.8953917001866172
30
0
11
18.785487077215862
21
-4.8953917001188811
31
0
0
LINE
5
448
100
AcDbEntity
8
0
100
AcDbLine
10
20.543772788861279
20
-4.6453917062432692
30
0
11
20.543772788861279
21
-4.8953917002856207
31
0
0
LINE
5
449
100
AcDbEntity
8
0
100
AcDbLine
10
21.805792128949026
20
-3.4668199668649562
30
0
11
22.516363630562182
21
-3.4668199668649562
31
0
0
LINE
5
450
100
AcDbEntity
8
0
100
AcDbLine
10
20.805792165807123
20
1.2677706170452598
30
0
11
21.055792165807123
21
1.2677706170452598
31
0
0
LINE
5
451
100
AcDbEntity
8
0
100
AcDbLine
10
20.149482357557698
20
-1.02809630447086
30
0
11
20.503035748150971
21
-0.67454291387758503
31
0
0
LINE
5
452
100
AcDbEntity
8
0
100
AcDbLine
10
18.785487076662299
20
-3.5076156793156845
30
0
11
19.035487076662303
21
-3.5076156793156845
31
0
0
LINE
5
453
100
AcDbEntity
8
0
100
AcDbLine
10
25.035504364850972
20
-3.9311059891278579
30
0
11
24.785504364850972
21
-3.9311059891278579
31
0
0
LINE
5
454
100
AcDbEntity
8
0
100
AcDbLine
10
21.055792165807123
20
1.7677706170452596
30
0
11
20.805792165807123
21
1.7677706170452596
31
0
0
LINE
5
455
100
AcDbEntity
8
0
100
AcDbLine
10
22.555863722124315
20
2.8391991884852592
30
0
11
22.055863722124315
21
2.8391991884852592
31
0
0
LINE
5
456
100
AcDbEntity
8
0
100
AcDbLine
10
18.785487077163776
20
-4.181105991943272
30
0
11
18.785487077215862
21
-4.181105991943272
31
0
0
LINE
5
457
100
AcDbEntity
8
0
100
AcDbLine
10
18.785487076662299
20
-2.3341156793156861
30
0
11
18.785487076662299
21
-2.5076156793156863
31
0
0
LINE
5
458
100
AcDbEntity
8
0
100
AcDbLine
10
20.543772788861279
20
-4.8953917002856207
30
0
11
21.087772786760265
21
-4.8953917003372087
31
0
0
LINE
5
459
100
AcDbEntity
8
0
100
AcDbLine
10
19.265454208209658
20
-1.5582817174959156
30
0
11
18.994696518676093
21
-1.8290394070294795
31
0
0
LINE
5
460
100
AcDbEntity
8
0
100
AcDbLine
10
23.043782496522049
20
-3.2168202776432699
30
0
11
23.04378249652207
21
-3.4668197532936476
31
0
0
LINE
5
461
100
AcDbEntity
8
0
100
AcDbLine
10
21.552061409143988
20
-4.4311073997021424
30
0
11
21.552061004207175
21
-3.9311073997023058
31
0
0
LINE
5
462
100
AcDbEntity
8
0
100
AcDbLine
10
24.555863722124311
20
2.5891991884852605
30
0
11
25.055863722124311
21
2.5891991884852605
31
0
0
LINE
5
463
100
AcDbEntity
8
0
100
AcDbLine
10
20.596582723793329
20
-0.22715320191223973
30
0
11
20.805792165807123
21
-0.017943759898446144
31
0
0
LINE
5
464
100
AcDbEntity
8
0
100
AcDbLine
10
21.055792165807123
20
2.2677706170452585
30
0
11
21.055792165807123
21
1.7677706170452596
31
0
0
LINE
5
465
100
AcDbEntity
8
0
100
AcDbLine
10
21.805792128949026
20
-3.4668199668649562
30
0
11
21.802061004207093
21
-3.9311071972339002
31
0
0
LINE
5
466
100
AcDbEntity
8
0
100
AcDbLine
10
19.619007598802934
20
-1.2047283269026428
30
0
11
19.795639621234717
21
-1.3813603493344242
31
0
0
LINE
5
467
100
AcDbEntity
8
0
100
AcDbLine
10
19.972560989396207
20
-0.85117493630936847
30
0
11
19.619007598802934
21
-1.2047283269026428
31
0
0
LINE
5
468
100
AcDbEntity
8
0
100
AcDbLine
10
21.555863722124311
20
2.8391991884852592
30
0
11
21.555863722124311
21
2.5891991884852597
31
0
0
LINE
5
469
100
AcDbEntity
8
0
100
AcDbLine
10
19.972560989396207
20
-0.85117493630936847
30
0
11
20.149482357557698
21
-1.02809630447086
31
0
0
LINE
5
470
100
AcDbEntity
8
0
100
AcDbLine
10
21.055792165807123
20
0.76777061704526062
30
0
11
20.805792165807123
21
0.76777061704526062
31
0
0
LINE
5
471
100
AcDbEntity
8
0
100
AcDbLine
10
20.805792165807123
20
1.7677706170452596
30
0
11
20.805792165807123
21
1.2677706170452598
31
0
0
LINE
5
472
100
AcDbEntity
8
0
100
AcDbLine
10
24.785504364850972
20
-4.8955932711980381
30
0
11
24.785504364850972
21
-4.4311059891278575
31
0
0
LINE
5
473
100
AcDbEntity
8
0
100
AcDbLine
10
18.785487076662299
20
-3.0076156793156859
30
0
11
19.035487076662303
21
-3.0076156793156859
31
0
0
LINE
5
474
100
AcDbEntity
8
0
100
AcDbLine
10
18.785487076662299
20
-3.0076156793156859
30
0
11
18.785487076662299
21
-3.5076156793156845
31
0
0
LINE
5
475
100
AcDbEntity
8
0
100
AcDbLine
10
18.785487076662299
20
-2.0382488490432746
30
0
11
18.994696518676093
21
-1.8290394070294795
31
0
0
LINE
5
476
100
AcDbEntity
8
0
100
AcDbLine
10
21.055792165807123
20
1.2677706170452598
30
0
11
21.055792165807123
21
0.76777061704526062
31
0
0
LINE
5
477
100
AcDbEntity
8
0
100
AcDbLine
10
23.543782496522255
20
-3.4668195508252415
30
0
11
23.04378249652207
21
-3.4668197532936476
31
0
0
LINE
5
478
100
AcDbEntity
8
0
100
AcDbLine
10
23.555863722124315
20
2.8391991884852592
30
0
11
23.055863722124311
21
2.8391991884852592
31
0
0
LINE
5
479
100
AcDbEntity
8
0
100
AcDbLine
10
19.795639621234717
20
-1.3813603493344242
30
0
11
19.44208623064144
21
-1.734913739927697
31
0
0
LINE
5
480
100
AcDbEntity
8
0
100
AcDbLine
10
25.805935278441503
20
2.2677706170452607
30
0
11
25.805792325478606
21
2.839199188485261
31
0
0
LINE
5
481
100
AcDbEntity
8
0
100
AcDbLine
10
27.78786483928047
20
-2.3298798780821204
30
0
11
27.78786483928047
21
-2.0214505508332179
31
0
0
LINE
5
482
100
AcDbEntity
8
0
100
AcDbLine
10
27.785340569924891
20
-3.5053766424219601
30
0
11
27.78786483928047
21
-3.5053766424219601
31
0
0
LINE
5
483
100
AcDbEntity
8
0
100
AcDbLine
10
27.58995627807198
20
-1.8235419896247278
30
0
11
27.326559002079989
21
-1.5601447136327362
31
0
0
LINE
5
484
100
AcDbEntity
8
0
100
AcDbLine
10
25.805792293564309
20
1.2677705851309642
30
0
11
25.555792293564309
21
1.2677705851309642
31
0
0
LINE
5
485
100
AcDbEntity
8
0
100
AcDbLine
10
26.543792207259358
20
-4.6453917062432648
30
0
11
26.043792206134778
21
-4.6453917062432648
31
0
0
LINE
5
486
100
AcDbEntity
8
0
100
AcDbLine
10
27.78786483928047
20
-4.1811050205000591
30
0
11
27.78791741563694
21
-4.8955428492109281
31
0
0
LINE
5
487
100
AcDbEntity
8
0
100
AcDbLine
10
26.043792206134778
20
-4.6453917062432648
30
0
11
26.043792206201999
21
-4.8956185495978133
31
0
0
LINE
5
488
100
AcDbEntity
8
0
100
AcDbLine
10
26.543792207365271
20
-4.8955817539841959
30
0
11
26.543792207259358
21
-4.6453917062432648
31
0
0
LINE
5
489
100
AcDbEntity
8
0
100
AcDbLine
10
27.535487076842287
20
-2.5053766853505191
30
0
11
27.78786483928047
21
-2.5053766853505191
31
0
0
LINE
5
490
100
AcDbEntity
8
0
100
AcDbLine
10
27.78786483928047
20
-2.0214505508332179
30
0
11
27.58995627807198
21
-1.8235419896247278
31
0
0
LINE
5
491
100
AcDbEntity
8
0
100
AcDbLine
10
26.97300561148672
20
-1.2065913230394647
30
0
11
26.796228916190088
21
-1.3833680183360999
31
0
0
LINE
5
492
100
AcDbEntity
8
0
100
AcDbLine
10
27.785340569924891
20
-3.5053766424219601
30
0
11
27.535340612853449
21
-3.5052301355045605
31
0
0
LINE
5
493
100
AcDbEntity
8
0
100
AcDbLine
10
27.535340612853449
20
-3.5052301355045605
30
0
11
27.53504759901865
21
-4.0052300496474453
31
0
0
LINE
5
494
100
AcDbEntity
8
0
100
AcDbLine
10
26.543792207365271
20
-4.8955817539841959
30
0
11
27.072452685350569
21
-4.8955428492109281
31
0
0
LINE
5
495
100
AcDbEntity
8
0
100
AcDbLine
10
25.555792293564309
20
2.2677705851309637
30
0
11
25.555792293564309
21
1.7677705851309646
31
0
0
LINE
5
496
100
AcDbEntity
8
0
100
AcDbLine
10
27.78786483928047
20
-2.3298798780821204
30
0
11
27.78786483928047
21
-2.5053766853505191
31
0
0
LINE
5
497
100
AcDbEntity
8
0
100
AcDbLine
10
26.796228916190088
20
-1.0298146277428284
30
0
11
26.61945222089345
21
-0.85303793244619186
31
0
0
LINE
5
498
100
AcDbEntity
8
0
100
AcDbLine
10
26.796228916190088
20
-1.3833680183360999
30
0
11
27.149782306783358
21
-1.7369214089293741
31
0
0
LINE
5
499
100
AcDbEntity
8
0
100
AcDbLine
10
27.785047556090092
20
-4.0053765565648449
30
0
11
27.78786483928047
21
-4.0053765565648449
31
0
0
LINE
5
500
100
AcDbEntity
8
0
100
AcDbLine
10
25.555792293564309
20
1.7677705851309646
30
0
11
25.805792293564309
21
1.7677705851309646
31
0
0
LINE
5
501
100
AcDbEntity
8
0
100
AcDbLine
10
25.555792293564309
20
0.76777058513096508
30
0
11
25.805792293564309
21
0.76777058513096585
31
0
0
LINE
5
502
100
AcDbEntity
8
0
100
AcDbLine
10
25.555792293564309
20
2.2677705851309637
30
0
11
25.555792293564309
21
1.7677705851309646
31
0
0
LINE
5
503
100
AcDbEntity
8
0
100
AcDbLine
10
25.805792293564309
20
1.2677705851309642
30
0
11
25.555792293564309
21
1.2677705851309642
31
0
0
LINE
5
504
100
AcDbEntity
8
0
100
AcDbLine
10
27.78791741563694
20
-4.8955428492109281
30
0
11
27.072452685350569
21
-4.8955428492109281
31
0
0
LINE
5
505
100
AcDbEntity
8
0
100
AcDbLine
10
26.265898830300173
20
-0.49948454185291763
30
0
11
26.001441120639434
21
-0.23502683219217615
31
0
0
LINE
5
506
100
AcDbEntity
8
0
100
AcDbLine
10
27.53504759901865
20
-4.0052300496474453
30
0
11
27.785047556090092
21
-4.0053765565648449
31
0
0
LINE
5
507
100
AcDbEntity
8
0
100
AcDbLine
10
25.555792293564309
20
0.76777058513096508
30
0
11
25.805792293564309
21
0.76777058513096585
31
0
0
LINE
5
508
100
AcDbEntity
8
0
100
AcDbLine
10
25.805792293564309
20
1.2677705851309642
30
0
11
25.805792293564309
21
1.7677705851309646
31
0
0
LINE
5
509
100
AcDbEntity
8
0
100
AcDbLine
10
25.555792293564309
20
1.2677705851309642
30
0
11
25.555792293564309
21
0.76777057821052364
31
0
0
LINE
5
510
100
AcDbEntity
8
0
100
AcDbLine
10
27.535487076842287
20
-3.0053766853505186
30
0
11
27.535487076842287
21
-2.5053766853505191
31
0
0
LINE
5
511
100
AcDbEntity
8
0
100
AcDbLine
10
26.97300561148672
20
-1.2065913230394647
30
0
11
26.61945222089345
21
-0.85303793244619186
31
0
0
LINE
5
512
100
AcDbEntity
8
0
100
AcDbLine
10
26.442675525596812
20
-1.0298146277428284
30
0
11
26.089122135003535
21
-0.67626123714955411
31
0
0
LINE
5
513
100
AcDbEntity
8
0
100
AcDbLine
10
26.001441120639434
20
-0.23502683219217615
30
0
11
25.79925298063619
21
-0.032838692188930443
31
0
0
LINE
5
514
100
AcDbEntity
8
0
100
AcDbLine
10
25.500044230673709
20
-4.8956585646785529
30
0
11
26.043792206201999
21
-4.8956185495978133
31
0
0
LINE
5
515
100
AcDbEntity
8
0
100
AcDbLine
10
25.805792293564309
20
1.2677705851309642
30
0
11
25.555792293564309
21
1.2677705851309642
31
0
0
LINE
5
516
100
AcDbEntity
8
0
100
AcDbLine
10
25.555792293564309
20
1.7677705851309646
30
0
11
25.805792293564309
21
1.7677705851309646
31
0
0
LINE
5
517
100
AcDbEntity
8
0
100
AcDbLine
10
25.79925298063619
20
-0.032838692188930443
30
0
11
25.79925298063619
21
0.27368389680875183
31
0
0
LINE
5
518
100
AcDbEntity
8
0
100
AcDbLine
10
27.149782306783358
20
-1.7369214089293741
30
0
11
27.326559002079989
21
-1.5601447136327362
31
0
0
LINE
5
519
100
AcDbEntity
8
0
100
AcDbLine
10
25.555792293564309
20
1.7677705851309646
30
0
11
25.805792293564309
21
1.7677705851309646
31
0
0
LINE
5
520
100
AcDbEntity
8
0
100
AcDbLine
10
26.61945222089345
20
-0.85303793244619186
30
0
11
26.442675525596812
21
-1.0298146277428284
31
0
0
LINE
5
521
100
AcDbEntity
8
0
100
AcDbLine
10
27.78786483928047
20
-3.0053766853505186
30
0
11
27.535487076842287
21
-3.0053766853505186
31
0
0
LINE
5
522
100
AcDbEntity
8
0
100
AcDbLine
10
27.78786483928047
20
-4.0053765565648449
30
0
11
27.78786483928047
21
-4.1811050205000591
31
0
0
LINE
5
523
100
AcDbEntity
8
0
100
AcDbLine
10
25.555792293564309
20
1.7677705851309646
30
0
11
25.805792293564309
21
1.7677705851309646
31
0
0
LINE
5
524
100
AcDbEntity
8
0
100
AcDbLine
10
25.555792293564309
20
2.2677705851309637
30
0
11
25.555792293564309
21
1.7677705851309646
31
0
0
LINE
5
525
100
AcDbEntity
8
0
100
AcDbLine
10
25.79925298063619
20
0.27368389680875183
30
0
11
25.800669130195875
21
0.76777057561102269
31
0
0
LINE
5
526
100
AcDbEntity
8
0
100
AcDbLine
10
25.555792293564309
20
1.2677705851309642
30
0
11
25.555792293564309
21
0.76777058513096508
31
0
0
LINE
5
527
100
AcDbEntity
8
0
100
AcDbLine
10
27.78786483928047
20
-3.0053766853505186
30
0
11
27.78786483928047
21
-3.5053766424219601
31
0
0
LINE
5
528
100
AcDbEntity
8
0
100
AcDbLine
10
26.089122135003535
20
-0.67626123714955411
30
0
11
26.265898830300173
21
-0.49948454185291763
31
0
0
LINE
5
529
100
AcDbEntity
8
0
100
AcDbLine
10
25.555792293564309
20
1.2677705851309642
30
0
11
25.555792293564309
21
0.76777058513096508
31
0
0
LINE
5
530
100
AcDbEntity
8
0
100
AcDbLine
10
25.555792293564309
20
0.76777057821052364
30
0
11
25.800669130195875
21
0.76777057561102269
31
0
0
LINE
5
531
100
AcDbEntity
8
0
100
AcDbLine
10
25.555792293564309
20
2.2677705851309637
30
0
11
25.555792293564309
21
1.7677705851309646
31
0
0
LINE
5
532
100
AcDbEntity
8
0
100
AcDbLine
10
25.555792293564309
20
2.2677705851309637
30
0
11
25.805935278441503
21
2.2677706170452607
31
0
0
LINE
5
533
100
AcDbEntity
8
0
100
AcDbLine
10
18.785487077215862
20
-4.8953917001188811
30
0
11
20.043772788861279
21
-4.8953917002382061
31
0
0
LINE
5
534
100
AcDbEntity
8
0
100
AcDbLine
10
18.785487077215862
20
-4.8953917001188811
30
0
11
18.785487077151124
21
-4.0076156793156841
31
0
0
ENDSEC
0
SECTION
2
OBJECTS
0
DICTIONARY
5
C
100
AcDbDictionary
3
ACAD_GROUP
350
D
3
ACAD_MLINESTYLE
350
17
0
DICTIONARY
5
D
100
AcDbDictionary
0
DICTIONARY
5
1A
330
C
100
AcDbDictionary
0
DICTIONARY
5
17
100
AcDbDictionary
0
ENDSEC
0
EOF
