M48
;Layer_Color=9474304
;FILE_FORMAT=4:3
METRIC,LZ
;TYPE=PLATED
T01F00S00C0.630
T02F00S00C0.700
T03F00S00C0.750
T04F00S00C0.800
T05F00S00C0.830
T06F00S00C0.900
T07F00S00C1.000
T08F00S00C1.020
T09F00S00C1.100
%
T01
X0038862Y002667
Y003155
T02
X0030266Y0025908
X0032766
Y003175
X0030266
X0059055Y0025956
Y0014176
T03
X0031242Y0010748
Y0020748
X0031369Y0037799
X0013001Y0036703
Y0039878
Y0031242
Y002667
Y002159
X0012874Y0016764
Y0012827
Y0008382
Y0003683
X0002874
Y0008382
Y0012827
Y0016764
X0003001Y002159
Y002667
Y0031242
Y0036703
Y0039878
Y0043053
Y0046228
Y004953
Y0052705
Y005588
X0013001
Y0052705
Y004953
Y0046228
Y0043053
X0031369Y0047799
X0036148Y0061341
X0046148
T04
X0005715Y0061468
Y0064008
Y0066548
Y0069088
Y0071628
Y0074168
Y0076708
Y0079248
X0023749
Y0076708
Y0074168
Y0071628
Y0069088
Y0066548
Y0064008
Y0061468
T05
X0044831Y0017526
Y0020066
Y0022606
Y0025146
Y0027686
Y0030226
Y0032766
Y0035306
Y0037846
Y0040386
X0052705
Y0037846
Y0035306
Y0032766
Y0030226
Y0027686
Y0025146
Y0022606
Y0020066
Y0017526
Y0042926
Y0045466
Y0048006
Y0050546
X0044831
Y0048006
Y0045466
Y0042926
T06
X0024511Y0009144
Y0011684
Y0014224
Y0016764
Y0019304
Y0021844
Y0024384
Y0026924
X0024892Y0035052
Y0037592
Y0040132
X0017272
Y0037592
Y0035052
X0016891Y0026924
Y0024384
Y0021844
Y0019304
Y0016764
Y0014224
Y0011684
Y0009144
X0017272Y0042672
Y0045212
Y0047752
Y0050292
Y0052832
X0024892
Y0050292
Y0047752
Y0045212
Y0042672
T07
X006731Y0017399
Y0019939
Y0022479
T08
X006477Y0004572
Y0007112
X007366Y0017272
Y0019812
X0071628Y0027432
Y0029972
Y0032512
X0071501Y0038862
Y0041402
X0058674Y0039116
Y0036576
Y0034036
X0059055Y0003429
X0056515
X-0009525Y0014478
Y0017018
Y0019558
Y0022098
X-0012065
Y0019558
Y0017018
Y0014478
X-0011938Y0038989
X-0009398
Y0041529
X-0011938
Y0044069
X-0009398
Y0046609
X-0011938
X0057404Y0048006
Y0050546
X0029718Y0076073
Y0078613
X0065659Y0050546
Y0048006
X0071501Y0043942
T09
X0040513Y0005334
X0043053
X0045593
Y0007874
X0043053
X0040513
M30
