G04*
G04 #@! TF.GenerationSoftware,Altium Limited,Altium Designer,25.4.2 (15)*
G04*
G04 Layer_Color=65535*
%FSLAX44Y44*%
%MOMM*%
G71*
G04*
G04 #@! TF.SameCoordinates,34CE3D42-887F-4740-A316-F92B37524FB1*
G04*
G04*
G04 #@! TF.FilePolarity,Positive*
G04*
G01*
G75*
%ADD10C,0.2000*%
%ADD11C,0.2500*%
%ADD12C,0.6000*%
%ADD13C,0.1270*%
%ADD14C,0.2540*%
%ADD15R,4.5000X0.8000*%
D10*
X-94250Y125580D02*
G03*
X-94250Y125580I-1000J0D01*
G01*
X217170Y340920D02*
G03*
X204470Y340920I-6350J0D01*
G01*
X213360Y81840D02*
G03*
X200660Y81840I-6350J0D01*
G01*
X606940Y391160D02*
G03*
X606940Y391160I-1000J0D01*
G01*
X594240Y505460D02*
G03*
X594240Y505460I-1000J0D01*
G01*
X676790D02*
G03*
X676790Y505460I-1000J0D01*
G01*
X698080Y274320D02*
G03*
X698080Y274320I-1000J0D01*
G01*
X696810Y388620D02*
G03*
X696810Y388620I-1000J0D01*
G01*
X256320Y614680D02*
G03*
X256320Y614680I-1000J0D01*
G01*
X278980Y760730D02*
G03*
X278980Y760730I-1000J0D01*
G01*
X566150Y53490D02*
G03*
X566150Y53490I-1000J0D01*
G01*
X629500Y45720D02*
G03*
X629500Y45720I-1000J0D01*
G01*
X718400Y172720D02*
G03*
X718400Y172720I-1000J0D01*
G01*
X-92980Y370690D02*
G03*
X-92980Y370690I-1000J0D01*
G01*
X437680Y505460D02*
G03*
X437680Y505460I-1000J0D01*
G01*
X111510Y418030D02*
Y443030D01*
X48510D02*
X111510D01*
X48510Y418030D02*
Y443030D01*
Y418030D02*
X111510D01*
Y449780D02*
Y474780D01*
X48510D02*
X111510D01*
X48510Y449780D02*
Y474780D01*
Y449780D02*
X111510D01*
Y482800D02*
Y507800D01*
X48510D02*
X111510D01*
X48510Y482800D02*
Y507800D01*
Y482800D02*
X111510D01*
Y514550D02*
Y539550D01*
X48510D02*
X111510D01*
X48510Y514550D02*
Y539550D01*
Y514550D02*
X111510D01*
Y546300D02*
Y571300D01*
X48510D02*
X111510D01*
X48510Y546300D02*
Y571300D01*
Y546300D02*
X111510D01*
Y354530D02*
Y379530D01*
X48510D02*
X111510D01*
X48510Y354530D02*
Y379530D01*
Y354530D02*
X111510D01*
Y386280D02*
Y411280D01*
X48510D02*
X111510D01*
X48510Y386280D02*
Y411280D01*
Y386280D02*
X111510D01*
X110240Y115770D02*
Y140770D01*
X47240D02*
X110240D01*
X47240Y115770D02*
Y140770D01*
Y115770D02*
X110240D01*
Y155140D02*
Y180140D01*
X47240D02*
X110240D01*
X47240Y155140D02*
Y180140D01*
Y155140D02*
X110240D01*
X111510Y203400D02*
Y228400D01*
X48510D02*
X111510D01*
X48510Y203400D02*
Y228400D01*
Y203400D02*
X111510D01*
Y254200D02*
Y279200D01*
X48510D02*
X111510D01*
X48510Y254200D02*
Y279200D01*
Y254200D02*
X111510D01*
Y299920D02*
Y324920D01*
X48510D02*
X111510D01*
X48510Y299920D02*
Y324920D01*
Y299920D02*
X111510D01*
X110240Y24330D02*
Y49330D01*
X47240D02*
X110240D01*
X47240Y24330D02*
Y49330D01*
Y24330D02*
X110240D01*
Y71320D02*
Y96320D01*
X47240D02*
X110240D01*
X47240Y71320D02*
Y96320D01*
Y71320D02*
X110240D01*
X-82550Y132080D02*
Y233680D01*
X-133350Y132080D02*
Y233680D01*
X-82550D01*
X-133350Y132080D02*
X-82550D01*
X237320Y340920D02*
Y537920D01*
X184320Y340920D02*
Y537920D01*
X217170Y340920D02*
X237320D01*
X184320D02*
X204470D01*
X184320Y537920D02*
X237320D01*
X233510Y81840D02*
Y278840D01*
X180510Y81840D02*
Y278840D01*
X213360Y81840D02*
X233510D01*
X180510D02*
X200660D01*
X180510Y278840D02*
X233510D01*
X599440Y327915D02*
Y403605D01*
X574040Y327915D02*
Y403605D01*
Y327915D02*
X599440D01*
X574040Y403605D02*
X599440D01*
X586740Y467360D02*
Y518160D01*
X561340Y467360D02*
Y518160D01*
Y467360D02*
X586740D01*
X561340Y518160D02*
X586740D01*
X669290Y467360D02*
Y518160D01*
X643890Y467360D02*
Y518160D01*
Y467360D02*
X669290D01*
X643890Y518160D02*
X669290D01*
X299920Y125980D02*
X324920D01*
Y188980D01*
X299920D02*
X324920D01*
X299920Y125980D02*
Y188980D01*
X301190Y396490D02*
X326190D01*
Y459490D01*
X301190D02*
X326190D01*
X301190Y396490D02*
Y459490D01*
X379980Y600910D02*
Y625910D01*
Y600910D02*
X442980D01*
Y625910D01*
X379980D02*
X442980D01*
X703580Y261875D02*
Y337565D01*
X728980Y261875D02*
Y337565D01*
X703580D02*
X728980D01*
X703580Y261875D02*
X728980D01*
X702310Y376175D02*
Y451865D01*
X727710Y376175D02*
Y451865D01*
X702310D02*
X727710D01*
X702310Y376175D02*
X727710D01*
X284480Y748030D02*
Y798830D01*
X309880Y748030D02*
Y798830D01*
X284480D02*
X309880D01*
X284480Y748030D02*
X309880D01*
X353130Y21040D02*
Y111040D01*
Y21040D02*
X507930D01*
X353130Y111040D02*
X507930D01*
Y21040D02*
Y111040D01*
X552450Y46990D02*
X603250D01*
X552450Y21590D02*
X603250D01*
Y46990D01*
X552450Y21590D02*
Y46990D01*
X635000Y33020D02*
Y83820D01*
X660400Y33020D02*
Y83820D01*
X635000D02*
X660400D01*
X635000Y33020D02*
X660400D01*
X723900Y160020D02*
Y210820D01*
X749300Y160020D02*
Y210820D01*
X723900D02*
X749300D01*
X723900Y160020D02*
X749300D01*
X651500Y148390D02*
Y250390D01*
X646500Y148390D02*
Y250390D01*
X693500Y148390D02*
Y250390D01*
X646500D02*
X693500D01*
X646500Y148390D02*
X693500D01*
X588050Y272160D02*
X593050D01*
X590550Y269660D02*
Y274660D01*
Y244460D02*
Y249560D01*
Y151760D02*
Y156860D01*
X567700D02*
X613400D01*
Y244460D01*
X567700D02*
X613400D01*
X567700Y156860D02*
Y244460D01*
X-132080Y377190D02*
X-81280D01*
X-132080Y478790D02*
X-81280D01*
X-132080Y377190D02*
Y478790D01*
X-81280Y377190D02*
Y478790D01*
X333160Y305000D02*
Y307750D01*
Y327250D02*
Y330000D01*
X297160D02*
X333160D01*
X297160Y305000D02*
Y307750D01*
Y327250D02*
Y330000D01*
Y305000D02*
X333160D01*
Y246580D02*
Y249330D01*
Y268830D02*
Y271580D01*
X297160D02*
X333160D01*
X297160Y246580D02*
Y249330D01*
Y268830D02*
Y271580D01*
Y246580D02*
X333160D01*
D11*
X250170Y337520D02*
G03*
X250170Y337520I-1250J0D01*
G01*
X246360Y78440D02*
G03*
X246360Y78440I-1250J0D01*
G01*
X674350Y141890D02*
G03*
X674350Y141890I-1250J0D01*
G01*
D12*
X230320Y350920D02*
G03*
X230320Y350920I-3000J0D01*
G01*
X226510Y91840D02*
G03*
X226510Y91840I-3000J0D01*
G01*
D13*
X411920Y335126D02*
G03*
X398744Y347850I-12950J-226D01*
G01*
Y234350D02*
G03*
X411920Y247074I226J12950D01*
G01*
X365320D02*
G03*
X378496Y234350I12950J226D01*
G01*
Y347850D02*
G03*
X365320Y335126I-226J-12950D01*
G01*
X248920Y601980D02*
Y805180D01*
X45720Y601980D02*
X248920D01*
X45720D02*
Y805180D01*
X248920D01*
X451485Y514910D02*
X523875D01*
X451485Y165810D02*
X523875D01*
X378520Y347850D02*
X398720D01*
X411920Y247050D02*
Y335150D01*
X378520Y234350D02*
X398720D01*
X365320Y247050D02*
Y335150D01*
D14*
X401974Y779249D02*
Y776709D01*
X407053Y771631D01*
X412131Y776709D01*
Y779249D01*
X407053Y771631D02*
Y764013D01*
X417209Y779249D02*
X422288D01*
X419749D01*
Y764013D01*
X417209D01*
X422288D01*
X429905D02*
Y779249D01*
X440062Y764013D01*
Y779249D01*
X445140D02*
X455297D01*
Y776709D01*
X445140Y766553D01*
Y764013D01*
X455297D01*
X475611D02*
Y774170D01*
X480689Y779249D01*
X485767Y774170D01*
Y764013D01*
Y771631D01*
X475611D01*
X490846Y779249D02*
Y764013D01*
X501002D01*
X506081D02*
Y779249D01*
X513698D01*
X516237Y776709D01*
Y771631D01*
X513698Y769092D01*
X506081D01*
X511159D02*
X516237Y764013D01*
X531472Y779249D02*
X521316D01*
Y764013D01*
X531472D01*
X521316Y771631D02*
X526394D01*
X536551Y764013D02*
Y774170D01*
X541629Y779249D01*
X546707Y774170D01*
Y764013D01*
Y771631D01*
X536551D01*
X551786Y779249D02*
Y764013D01*
X559403D01*
X561943Y766553D01*
Y776709D01*
X559403Y779249D01*
X551786D01*
X567021D02*
Y776709D01*
X572099Y771631D01*
X577178Y776709D01*
Y779249D01*
X572099Y771631D02*
Y764013D01*
X597491Y779249D02*
Y764013D01*
Y769092D01*
X607648Y779249D01*
X600030Y771631D01*
X607648Y764013D01*
X612726D02*
Y779249D01*
X622883Y764013D01*
Y779249D01*
X635579D02*
X630500D01*
X627961Y776709D01*
Y766553D01*
X630500Y764013D01*
X635579D01*
X638118Y766553D01*
Y776709D01*
X635579Y779249D01*
X643196D02*
Y764013D01*
X648275Y769092D01*
X653353Y764013D01*
Y779249D01*
X673666D02*
Y764013D01*
X678745Y769092D01*
X683823Y764013D01*
Y779249D01*
X688902D02*
Y764013D01*
Y771631D01*
X699058D01*
Y779249D01*
Y764013D01*
X711754Y779249D02*
X706676D01*
X704137Y776709D01*
Y766553D01*
X706676Y764013D01*
X711754D01*
X714293Y766553D01*
Y776709D01*
X711754Y779249D01*
X385470Y752331D02*
X390548D01*
X388009D01*
Y737096D01*
X385470D01*
X390548D01*
X398166Y752331D02*
X408322D01*
X403244D01*
Y737096D01*
X428636Y752331D02*
X433714D01*
X431175D01*
Y737096D01*
X428636D01*
X433714D01*
X451488Y749792D02*
X448949Y752331D01*
X443871D01*
X441332Y749792D01*
Y747253D01*
X443871Y744714D01*
X448949D01*
X451488Y742175D01*
Y739635D01*
X448949Y737096D01*
X443871D01*
X441332Y739635D01*
X466723Y749792D02*
X464184Y752331D01*
X459106D01*
X456567Y749792D01*
Y747253D01*
X459106Y744714D01*
X464184D01*
X466723Y742175D01*
Y739635D01*
X464184Y737096D01*
X459106D01*
X456567Y739635D01*
X481958Y749792D02*
X479419Y752331D01*
X474341D01*
X471802Y749792D01*
Y747253D01*
X474341Y744714D01*
X479419D01*
X481958Y742175D01*
Y739635D01*
X479419Y737096D01*
X474341D01*
X471802Y739635D01*
X497193Y749792D02*
X494654Y752331D01*
X489576D01*
X487037Y749792D01*
Y747253D01*
X489576Y744714D01*
X494654D01*
X497193Y742175D01*
Y739635D01*
X494654Y737096D01*
X489576D01*
X487037Y739635D01*
X512429Y749792D02*
X509889Y752331D01*
X504811D01*
X502272Y749792D01*
Y747253D01*
X504811Y744714D01*
X509889D01*
X512429Y742175D01*
Y739635D01*
X509889Y737096D01*
X504811D01*
X502272Y739635D01*
X517507Y742175D02*
Y754870D01*
Y739635D02*
Y737096D01*
X522585Y742175D02*
Y754870D01*
Y739635D02*
Y737096D01*
X527664Y742175D02*
Y754870D01*
Y739635D02*
Y737096D01*
X532742Y742175D02*
Y754870D01*
Y739635D02*
Y737096D01*
X553055Y752331D02*
Y737096D01*
X563212D01*
X578447Y752331D02*
X568290D01*
Y737096D01*
X578447D01*
X568290Y744714D02*
X573369D01*
X583526Y752331D02*
Y737096D01*
X591143D01*
X593682Y739635D01*
Y742175D01*
X591143Y744714D01*
X583526D01*
X591143D01*
X593682Y747253D01*
Y749792D01*
X591143Y752331D01*
X583526D01*
X598761Y737096D02*
Y752331D01*
X606378D01*
X608917Y749792D01*
Y744714D01*
X606378Y742175D01*
X598761D01*
X603839D02*
X608917Y737096D01*
X621613Y752331D02*
X616535D01*
X613996Y749792D01*
Y739635D01*
X616535Y737096D01*
X621613D01*
X624152Y739635D01*
Y749792D01*
X621613Y752331D01*
X629231Y737096D02*
Y752331D01*
X639388Y737096D01*
Y752331D01*
X669858D02*
X664779D01*
X667318D01*
Y739635D01*
X664779Y737096D01*
X662240D01*
X659701Y739635D01*
X674936Y737096D02*
Y747253D01*
X680014Y752331D01*
X685093Y747253D01*
Y737096D01*
Y744714D01*
X674936D01*
X690171Y737096D02*
Y752331D01*
X695249Y747253D01*
X700328Y752331D01*
Y737096D01*
X715563Y752331D02*
X705406D01*
Y737096D01*
X715563D01*
X705406Y744714D02*
X710484D01*
X730798Y749792D02*
X728259Y752331D01*
X723180D01*
X720641Y749792D01*
Y747253D01*
X723180Y744714D01*
X728259D01*
X730798Y742175D01*
Y739635D01*
X728259Y737096D01*
X723180D01*
X720641Y739635D01*
X415940Y727953D02*
Y712718D01*
X426096D01*
X441332Y727953D02*
X431175D01*
Y712718D01*
X441332D01*
X431175Y720336D02*
X436253D01*
X446410Y727953D02*
Y712718D01*
X454027D01*
X456567Y715257D01*
Y717796D01*
X454027Y720336D01*
X446410D01*
X454027D01*
X456567Y722875D01*
Y725414D01*
X454027Y727953D01*
X446410D01*
X461645Y712718D02*
Y727953D01*
X469263D01*
X471802Y725414D01*
Y720336D01*
X469263Y717796D01*
X461645D01*
X466723D02*
X471802Y712718D01*
X484498Y727953D02*
X479419D01*
X476880Y725414D01*
Y715257D01*
X479419Y712718D01*
X484498D01*
X487037Y715257D01*
Y725414D01*
X484498Y727953D01*
X492115Y712718D02*
Y727953D01*
X502272Y712718D01*
Y727953D01*
X532742D02*
X527664D01*
X530203D01*
Y715257D01*
X527664Y712718D01*
X525125D01*
X522585Y715257D01*
X537820Y712718D02*
Y722875D01*
X542899Y727953D01*
X547977Y722875D01*
Y712718D01*
Y720336D01*
X537820D01*
X553055Y712718D02*
Y727953D01*
X558134Y722875D01*
X563212Y727953D01*
Y712718D01*
X578447Y727953D02*
X568290D01*
Y712718D01*
X578447D01*
X568290Y720336D02*
X573369D01*
X593682Y725414D02*
X591143Y727953D01*
X586065D01*
X583526Y725414D01*
Y722875D01*
X586065Y720336D01*
X591143D01*
X593682Y717796D01*
Y715257D01*
X591143Y712718D01*
X586065D01*
X583526Y715257D01*
X613996Y727953D02*
Y712718D01*
X624152D01*
X639388Y727953D02*
X629231D01*
Y712718D01*
X639388D01*
X629231Y720336D02*
X634309D01*
X644466Y727953D02*
Y712718D01*
X652083D01*
X654623Y715257D01*
Y717796D01*
X652083Y720336D01*
X644466D01*
X652083D01*
X654623Y722875D01*
Y725414D01*
X652083Y727953D01*
X644466D01*
X659701Y712718D02*
Y727953D01*
X667318D01*
X669858Y725414D01*
Y720336D01*
X667318Y717796D01*
X659701D01*
X664779D02*
X669858Y712718D01*
X682553Y727953D02*
X677475D01*
X674936Y725414D01*
Y715257D01*
X677475Y712718D01*
X682553D01*
X685093Y715257D01*
Y725414D01*
X682553Y727953D01*
X690171Y712718D02*
Y727953D01*
X700328Y712718D01*
Y727953D01*
X471802Y703575D02*
X466723D01*
X469263D01*
Y690879D01*
X466723Y688340D01*
X464184D01*
X461645Y690879D01*
X476880Y688340D02*
Y698497D01*
X481958Y703575D01*
X487037Y698497D01*
Y688340D01*
Y695957D01*
X476880D01*
X492115Y688340D02*
Y698497D01*
X497193Y703575D01*
X502272Y698497D01*
Y688340D01*
Y695957D01*
X492115D01*
X507350Y688340D02*
Y698497D01*
X512429Y703575D01*
X517507Y698497D01*
Y688340D01*
Y695957D01*
X507350D01*
X522585Y688340D02*
Y698497D01*
X527664Y703575D01*
X532742Y698497D01*
Y688340D01*
Y695957D01*
X522585D01*
X537820Y688340D02*
Y698497D01*
X542899Y703575D01*
X547977Y698497D01*
Y688340D01*
Y695957D01*
X537820D01*
X553055Y688340D02*
Y698497D01*
X558134Y703575D01*
X563212Y698497D01*
Y688340D01*
Y695957D01*
X553055D01*
X568290Y688340D02*
Y698497D01*
X573369Y703575D01*
X578447Y698497D01*
Y688340D01*
Y695957D01*
X568290D01*
X583526Y688340D02*
Y698497D01*
X588604Y703575D01*
X593682Y698497D01*
Y688340D01*
Y695957D01*
X583526D01*
X598761Y688340D02*
Y698497D01*
X603839Y703575D01*
X608917Y698497D01*
Y688340D01*
Y695957D01*
X598761D01*
X613996Y688340D02*
Y703575D01*
X619074Y698497D01*
X624152Y703575D01*
Y688340D01*
X639388Y703575D02*
X629231D01*
Y688340D01*
X639388D01*
X629231Y695957D02*
X634309D01*
X654623Y701036D02*
X652083Y703575D01*
X647005D01*
X644466Y701036D01*
Y698497D01*
X647005Y695957D01*
X652083D01*
X654623Y693418D01*
Y690879D01*
X652083Y688340D01*
X647005D01*
X644466Y690879D01*
X14097Y418465D02*
X-1138D01*
Y426082D01*
X1401Y428622D01*
X6479D01*
X9019Y426082D01*
Y418465D01*
Y423543D02*
X14097Y428622D01*
Y433700D02*
Y438778D01*
Y436239D01*
X-1138D01*
X1401Y433700D01*
X14097Y450215D02*
X-1138D01*
Y457832D01*
X1401Y460372D01*
X6479D01*
X9019Y457832D01*
Y450215D01*
Y455293D02*
X14097Y460372D01*
X-1138Y475607D02*
Y465450D01*
X6479D01*
X3940Y470528D01*
Y473068D01*
X6479Y475607D01*
X11558D01*
X14097Y473068D01*
Y467989D01*
X11558Y465450D01*
X14097Y483235D02*
X-1138D01*
Y490853D01*
X1401Y493392D01*
X6479D01*
X9019Y490853D01*
Y483235D01*
Y488313D02*
X14097Y493392D01*
X-1138Y508627D02*
X1401Y503548D01*
X6479Y498470D01*
X11558D01*
X14097Y501009D01*
Y506088D01*
X11558Y508627D01*
X9019D01*
X6479Y506088D01*
Y498470D01*
X14097Y514985D02*
X-1138D01*
Y522603D01*
X1401Y525142D01*
X6479D01*
X9019Y522603D01*
Y514985D01*
Y520063D02*
X14097Y525142D01*
X-1138Y530220D02*
Y540377D01*
X1401D01*
X11558Y530220D01*
X14097D01*
Y546735D02*
X-1138D01*
Y554352D01*
X1401Y556892D01*
X6479D01*
X9019Y554352D01*
Y546735D01*
Y551813D02*
X14097Y556892D01*
X1401Y561970D02*
X-1138Y564509D01*
Y569588D01*
X1401Y572127D01*
X3940D01*
X6479Y569588D01*
X9019Y572127D01*
X11558D01*
X14097Y569588D01*
Y564509D01*
X11558Y561970D01*
X9019D01*
X6479Y564509D01*
X3940Y561970D01*
X1401D01*
X6479Y564509D02*
Y569588D01*
X14097Y354965D02*
X-1138D01*
Y362583D01*
X1401Y365122D01*
X6479D01*
X9019Y362583D01*
Y354965D01*
Y360043D02*
X14097Y365122D01*
X11558Y370200D02*
X14097Y372739D01*
Y377818D01*
X11558Y380357D01*
X1401D01*
X-1138Y377818D01*
Y372739D01*
X1401Y370200D01*
X3940D01*
X6479Y372739D01*
Y380357D01*
X14097Y386715D02*
X-1138D01*
Y394333D01*
X1401Y396872D01*
X6479D01*
X9019Y394333D01*
Y386715D01*
Y391793D02*
X14097Y396872D01*
Y401950D02*
Y407028D01*
Y404489D01*
X-1138D01*
X1401Y401950D01*
Y414646D02*
X-1138Y417185D01*
Y422263D01*
X1401Y424803D01*
X11558D01*
X14097Y422263D01*
Y417185D01*
X11558Y414646D01*
X1401D01*
X12827Y116205D02*
X-2408D01*
Y123822D01*
X131Y126362D01*
X5210D01*
X7749Y123822D01*
Y116205D01*
Y121283D02*
X12827Y126362D01*
Y131440D02*
Y136518D01*
Y133979D01*
X-2408D01*
X131Y131440D01*
X12827Y144136D02*
Y149214D01*
Y146675D01*
X-2408D01*
X131Y144136D01*
X12827Y155575D02*
X-2408D01*
Y163193D01*
X131Y165732D01*
X5210D01*
X7749Y163193D01*
Y155575D01*
Y160653D02*
X12827Y165732D01*
Y170810D02*
Y175888D01*
Y173349D01*
X-2408D01*
X131Y170810D01*
X12827Y193663D02*
Y183506D01*
X2670Y193663D01*
X131D01*
X-2408Y191124D01*
Y186045D01*
X131Y183506D01*
X14097Y203835D02*
X-1138D01*
Y211453D01*
X1401Y213992D01*
X6479D01*
X9019Y211453D01*
Y203835D01*
Y208913D02*
X14097Y213992D01*
Y219070D02*
Y224148D01*
Y221609D01*
X-1138D01*
X1401Y219070D01*
Y231766D02*
X-1138Y234305D01*
Y239384D01*
X1401Y241923D01*
X3940D01*
X6479Y239384D01*
Y236844D01*
Y239384D01*
X9019Y241923D01*
X11558D01*
X14097Y239384D01*
Y234305D01*
X11558Y231766D01*
X14097Y254635D02*
X-1138D01*
Y262253D01*
X1401Y264792D01*
X6479D01*
X9019Y262253D01*
Y254635D01*
Y259713D02*
X14097Y264792D01*
Y269870D02*
Y274948D01*
Y272409D01*
X-1138D01*
X1401Y269870D01*
X14097Y290184D02*
X-1138D01*
X6479Y282566D01*
Y292723D01*
X14097Y300355D02*
X-1138D01*
Y307973D01*
X1401Y310512D01*
X6479D01*
X9019Y307973D01*
Y300355D01*
Y305433D02*
X14097Y310512D01*
Y315590D02*
Y320668D01*
Y318129D01*
X-1138D01*
X1401Y315590D01*
X-1138Y338443D02*
Y328286D01*
X6479D01*
X3940Y333364D01*
Y335904D01*
X6479Y338443D01*
X11558D01*
X14097Y335904D01*
Y330825D01*
X11558Y328286D01*
X12827Y24765D02*
X-2408D01*
Y32383D01*
X131Y34922D01*
X5210D01*
X7749Y32383D01*
Y24765D01*
Y29843D02*
X12827Y34922D01*
Y40000D02*
Y45078D01*
Y42539D01*
X-2408D01*
X131Y40000D01*
X-2408Y62853D02*
X131Y57774D01*
X5210Y52696D01*
X10288D01*
X12827Y55235D01*
Y60314D01*
X10288Y62853D01*
X7749D01*
X5210Y60314D01*
Y52696D01*
X12827Y71755D02*
X-2408D01*
Y79373D01*
X131Y81912D01*
X5210D01*
X7749Y79373D01*
Y71755D01*
Y76833D02*
X12827Y81912D01*
Y86990D02*
Y92068D01*
Y89529D01*
X-2408D01*
X131Y86990D01*
X-2408Y99686D02*
Y109843D01*
X131D01*
X10288Y99686D01*
X12827D01*
X-123320Y259202D02*
X-128399D01*
X-125859D01*
Y246506D01*
X-128399Y243967D01*
X-130938D01*
X-133477Y246506D01*
X-108085Y243967D02*
X-118242D01*
X-108085Y254124D01*
Y256663D01*
X-110624Y259202D01*
X-115703D01*
X-118242Y256663D01*
X-103007Y243967D02*
Y254124D01*
X-97928Y259202D01*
X-92850Y254124D01*
Y243967D01*
Y251584D01*
X-103007D01*
X214636Y328927D02*
Y316232D01*
X217175Y313692D01*
X222254D01*
X224793Y316232D01*
Y328927D01*
X229871Y313692D02*
X234950D01*
X232410D01*
Y328927D01*
X229871Y326388D01*
X242567Y313692D02*
Y323849D01*
X247645Y328927D01*
X252724Y323849D01*
Y313692D01*
Y321310D01*
X242567D01*
X212484Y68199D02*
Y55503D01*
X215023Y52964D01*
X220102D01*
X222641Y55503D01*
Y68199D01*
X237876Y52964D02*
X227719D01*
X237876Y63121D01*
Y65660D01*
X235337Y68199D01*
X230258D01*
X227719Y65660D01*
X242954Y52964D02*
Y63121D01*
X248033Y68199D01*
X253111Y63121D01*
Y52964D01*
Y60581D01*
X242954D01*
X582931Y427988D02*
X577853D01*
X580392D01*
Y415292D01*
X577853Y412752D01*
X575313D01*
X572774Y415292D01*
X595627Y412752D02*
Y427988D01*
X588009Y420370D01*
X598166D01*
X607062Y532127D02*
X601984D01*
X604523D01*
Y519432D01*
X601984Y516893D01*
X599445D01*
X596905Y519432D01*
X612140Y516893D02*
X617219D01*
X614680D01*
Y532127D01*
X612140Y529588D01*
X624836Y516893D02*
X629915D01*
X627375D01*
Y532127D01*
X624836Y529588D01*
X692153Y521968D02*
X687075D01*
X689614D01*
Y509272D01*
X687075Y506732D01*
X684535D01*
X681996Y509272D01*
X697231Y506732D02*
X702310D01*
X699770D01*
Y521968D01*
X697231Y519428D01*
X709927D02*
X712466Y521968D01*
X717545D01*
X720084Y519428D01*
Y509272D01*
X717545Y506732D01*
X712466D01*
X709927Y509272D01*
Y519428D01*
X216801Y591693D02*
Y578997D01*
X219340Y576458D01*
X224419D01*
X226958Y578997D01*
Y591693D01*
X232036Y576458D02*
X237115D01*
X234576D01*
Y591693D01*
X232036Y589154D01*
X244732D02*
X247271Y591693D01*
X252350D01*
X254889Y589154D01*
Y578997D01*
X252350Y576458D01*
X247271D01*
X244732Y578997D01*
Y589154D01*
X437261Y539364D02*
Y526668D01*
X439800Y524129D01*
X444879D01*
X447418Y526668D01*
Y539364D01*
X452496Y526668D02*
X455035Y524129D01*
X460114D01*
X462653Y526668D01*
Y536825D01*
X460114Y539364D01*
X455035D01*
X452496Y536825D01*
Y534286D01*
X455035Y531746D01*
X462653D01*
X297184Y222253D02*
Y237488D01*
X304802D01*
X307341Y234948D01*
Y229870D01*
X304802Y227331D01*
X297184D01*
X302262D02*
X307341Y222253D01*
X320037D02*
Y237488D01*
X312419Y229870D01*
X322576D01*
X299724Y494033D02*
Y509268D01*
X307342D01*
X309881Y506728D01*
Y501650D01*
X307342Y499111D01*
X299724D01*
X304802D02*
X309881Y494033D01*
X314959Y506728D02*
X317498Y509268D01*
X322577D01*
X325116Y506728D01*
Y504189D01*
X322577Y501650D01*
X320037D01*
X322577D01*
X325116Y499111D01*
Y496572D01*
X322577Y494033D01*
X317498D01*
X314959Y496572D01*
X427994Y635003D02*
Y650238D01*
X435612D01*
X438151Y647698D01*
Y642620D01*
X435612Y640081D01*
X427994D01*
X433073D02*
X438151Y635003D01*
X453386D02*
X443229D01*
X453386Y645159D01*
Y647698D01*
X450847Y650238D01*
X445768D01*
X443229Y647698D01*
X375282Y361584D02*
Y371741D01*
X372743Y374280D01*
X367664D01*
X365125Y371741D01*
Y361584D01*
X367664Y359045D01*
X372743D01*
X370203Y364123D02*
X375282Y359045D01*
X372743D02*
X375282Y361584D01*
X390517Y359045D02*
X380360D01*
X390517Y369202D01*
Y371741D01*
X387978Y374280D01*
X382899D01*
X380360Y371741D01*
X678180Y270512D02*
Y280668D01*
X675641Y283207D01*
X670563D01*
X668023Y280668D01*
Y270512D01*
X670563Y267973D01*
X675641D01*
X673102Y273051D02*
X678180Y267973D01*
X675641D02*
X678180Y270512D01*
X683258Y267973D02*
X688337D01*
X685798D01*
Y283207D01*
X683258Y280668D01*
X585471Y77467D02*
X580392D01*
X582932D01*
Y64772D01*
X580392Y62232D01*
X577853D01*
X575314Y64772D01*
X590549Y74928D02*
X593088Y77467D01*
X598167D01*
X600706Y74928D01*
Y72389D01*
X598167Y69850D01*
X600706Y67311D01*
Y64772D01*
X598167Y62232D01*
X593088D01*
X590549Y64772D01*
Y67311D01*
X593088Y69850D01*
X590549Y72389D01*
Y74928D01*
X593088Y69850D02*
X598167D01*
X645161Y109218D02*
X640082D01*
X642622D01*
Y96522D01*
X640082Y93982D01*
X637543D01*
X635004Y96522D01*
X650239Y109218D02*
X660396D01*
Y106678D01*
X650239Y96522D01*
Y93982D01*
X707768Y363088D02*
X702689D01*
X705229D01*
Y350392D01*
X702689Y347853D01*
X700150D01*
X697611Y350392D01*
X723003Y363088D02*
X717924Y360549D01*
X712846Y355471D01*
Y350392D01*
X715385Y347853D01*
X720464D01*
X723003Y350392D01*
Y352931D01*
X720464Y355471D01*
X712846D01*
X706498Y477388D02*
X701419D01*
X703959D01*
Y464692D01*
X701419Y462153D01*
X698880D01*
X696341Y464692D01*
X721733Y477388D02*
X711576D01*
Y469771D01*
X716654Y472310D01*
X719194D01*
X721733Y469771D01*
Y464692D01*
X719194Y462153D01*
X714115D01*
X711576Y464692D01*
X288668Y824352D02*
X283589D01*
X286129D01*
Y811656D01*
X283589Y809117D01*
X281050D01*
X278511Y811656D01*
X293746Y821813D02*
X296285Y824352D01*
X301364D01*
X303903Y821813D01*
Y819274D01*
X301364Y816734D01*
X298824D01*
X301364D01*
X303903Y814195D01*
Y811656D01*
X301364Y809117D01*
X296285D01*
X293746Y811656D01*
X488951Y137157D02*
X483872D01*
X486412D01*
Y124462D01*
X483872Y121923D01*
X481333D01*
X478794Y124462D01*
X504186Y121923D02*
X494029D01*
X504186Y132079D01*
Y134618D01*
X501647Y137157D01*
X496568D01*
X494029Y134618D01*
X728088Y236342D02*
X723009D01*
X725548D01*
Y223646D01*
X723009Y221107D01*
X720470D01*
X717931Y223646D01*
X733166Y221107D02*
X738244D01*
X735705D01*
Y236342D01*
X733166Y233803D01*
X-122050Y504312D02*
X-127129D01*
X-124590D01*
Y491616D01*
X-127129Y489077D01*
X-129668D01*
X-132207Y491616D01*
X-116972Y489077D02*
X-111894D01*
X-114433D01*
Y504312D01*
X-116972Y501773D01*
X-104276Y489077D02*
Y499234D01*
X-99198Y504312D01*
X-94119Y499234D01*
Y489077D01*
Y496694D01*
X-104276D01*
X578482Y296033D02*
X575942Y298572D01*
X570864D01*
X568325Y296033D01*
Y285876D01*
X570864Y283337D01*
X575942D01*
X578482Y285876D01*
X591178Y283337D02*
Y298572D01*
X583560Y290954D01*
X593717D01*
X312421Y292098D02*
X309882Y294638D01*
X304803D01*
X302264Y292098D01*
Y281942D01*
X304803Y279403D01*
X309882D01*
X312421Y281942D01*
X317499Y292098D02*
X320038Y294638D01*
X325117D01*
X327656Y292098D01*
Y289559D01*
X325117Y287020D01*
X322578D01*
X325117D01*
X327656Y284481D01*
Y281942D01*
X325117Y279403D01*
X320038D01*
X317499Y281942D01*
X313691Y354328D02*
X311152Y356867D01*
X306073D01*
X303534Y354328D01*
Y344172D01*
X306073Y341632D01*
X311152D01*
X313691Y344172D01*
X328926Y341632D02*
X318769D01*
X328926Y351789D01*
Y354328D01*
X326387Y356867D01*
X321308D01*
X318769Y354328D01*
D15*
X430530Y25040D02*
D03*
M02*
